<?xml version="1.0" standalone="no"?>
<!DOCTYPE svg PUBLIC "-//W3C//DTD SVG 1.1//EN" "http://www.w3.org/Graphics/SVG/1.1/DTD/svg11.dtd" >
<svg xmlns="http://www.w3.org/2000/svg">
<metadata>Generated by IcoMoon</metadata>
<defs>
<font id="isp-icon-restyle" horiz-adv-x="1024">
<font-face units-per-em="1024" ascent="960" descent="-64" />
<missing-glyph horiz-adv-x="1024" />
<glyph unicode="&#x20;" horiz-adv-x="512" d="" />
<glyph unicode="&#xe900;" glyph-name="ISP_Icon_Aggiungi" d="M512 0c-247.424 0-448 200.576-448 448s200.576 448 448 448c247.424 0 448-200.576 448-448s-200.576-448-448-448zM512 56c216.496 0 392 175.504 392 392s-175.504 392-392 392c-216.496 0-392-175.504-392-392s175.504-392 392-392zM478.792 404.376h-96.376c-21.217 0-38.416 17.199-38.416 38.416v0c0 21.217 17.199 38.416 38.416 38.416h96.376v96.376c0 21.217 17.199 38.416 38.416 38.416v0c21.217 0 38.416-17.199 38.416-38.416v-96.376h96.376c21.217 0 38.416-17.199 38.416-38.416v0c0-21.217-17.199-38.416-38.416-38.416h-96.376v-96.376c0-21.217-17.199-38.416-38.416-38.416v0c-21.217 0-38.416 17.199-38.416 38.416v96.376z" />
<glyph unicode="&#xe901;" glyph-name="ISP_Icon_Arrow_forward" d="M612.937 848.449l331.758-362.65c19.575-21.398 19.575-54.2 0-75.598l-331.758-362.65c-17.931-19.601-48.357-20.955-67.958-3.023-1.052 0.962-2.061 1.971-3.023 3.023v0c-20.102 21.974-20.138 55.65-0.083 77.667l244.909 268.863h-668.863c-29.779 0-53.919 24.14-53.919 53.919v0c0 29.779 24.14 53.919 53.919 53.919h668.863l-244.909 268.863c-20.056 22.017-20.020 55.692 0.083 77.667v0c17.931 19.601 48.357 20.955 67.958 3.023 1.052-0.962 2.061-1.971 3.023-3.023z" />
<glyph unicode="&#xe902;" glyph-name="ISP_Icon_attach" d="M173.848 53.957c-99.865 76.342-100.248 246.307-10.648 335.748l454.4 453.59c70.4 70.275 185.6 70.275 256 0 32-31.943 51.2-76.663 51.2-127.772 0-44.72-19.2-89.44-51.2-127.772l-435.2-434.424c-44.8-44.72-128-44.72-172.8 0-51.2 51.109-44.8 127.772 0 172.492l281.6 281.098c12.8 12.777 32 12.777 44.8 0s12.8-31.943 0-44.72l-281.6-281.098c-25.6-25.554-25.6-57.497 0-83.052s64-25.554 83.2 0l435.2 434.424c19.2 19.166 32 51.109 32 83.052s-12.8 57.497-32 83.052c-44.8 44.72-121.6 44.72-166.4 0l-454.4-453.59c-64-63.886-53.352-176.033 10.648-239.919s183.42-78.45 247.42-14.564l428.8 428.036c12.8 12.777 32 12.777 44.8 0s12.8-31.943 0-44.72l-435.2-434.424c-44.8-38.332-194.069-89.824-330.62 14.564z" />
<glyph unicode="&#xe903;" glyph-name="ISP_Icon_Right" d="M313.713 9.269c-6.596-6.179-14.841-9.269-23.91-9.269s-17.314 3.090-23.91 9.269c-13.192 12.359-13.192 32.441 0 44.8l420.483 393.931-420.483 393.931c-13.192 12.359-13.192 32.441 0 44.8s34.628 12.359 47.82 0l444.393-416.331c13.192-12.359 13.192-32.441 0-44.8l-444.393-416.331z" />
<glyph unicode="&#xe904;" glyph-name="ISP_Icon_Scarica" d="M960 437.195v-378.182c0-16.208-11.2-27.013-28-27.013h-840c-16.8 0-28 10.805-28 27.013v324.156c0 10.805 11.2 21.61 28 21.61s28-10.805 28-21.61v-297.143h784v351.169c0 16.208 11.2 27.013 28 27.013s28-16.208 28-27.013zM495.2 221.091c5.6-5.403 11.2-5.403 22.4-5.403s16.8 0 22.4 5.403l246.4 237.714c5.6 10.805 5.6 32.416-5.6 43.221s-28 10.805-39.2 0l-201.6-194.494v529.455c0 16.208-11.2 27.013-28 27.013s-28-10.805-28-27.013v-534.857l-201.6 199.896c-5.6 5.403-28 5.403-39.2 0s-11.2-32.416 0-43.221l252-237.714z" />
<glyph unicode="&#xe905;" glyph-name="ISP_Icon_Espandi" d="M896 608v178.688l-338.752-338.688 338.752-338.752v178.752c0 17.664 14.336 32 32 32s32-14.336 32-32v-256c0-17.664-14.336-32-32-32h-256c-17.664 0-32 14.336-32 32s14.336 32 32 32h178.752l-338.752 338.752-338.752-338.752h178.752c17.664 0 32-14.336 32-32s-14.336-32-32-32h-256c-17.664 0-32 14.336-32 32v256c0 17.664 14.336 32 32 32s32-14.336 32-32v-178.752l338.752 338.752-338.752 338.752v-178.752c0-17.664-14.336-32-32-32s-32 14.336-32 32v256c0 17.664 14.336 32 32 32h256c17.664 0 32-14.336 32-32s-14.336-32-32-32h-178.752l338.752-338.752 338.752 338.752h-178.752c-17.664 0-32 14.336-32 32s14.336 32 32 32h256c17.664 0 32-14.336 32-32v-256c0-17.664-14.336-32-32-32s-32 14.336-32 32z" />
<glyph unicode="&#xe906;" glyph-name="ISP_Icon_Folder-01" d="M64.016 802.403c0 16.351 13.105 29.597 29.232 29.597h273.529c8.372 0 16.322-3.617 21.906-9.988l81.608-93.653h384.837c16.127 0 29.232-13.247 29.232-29.597v-79.586h46.41c20.715 0 34.83-21.231 27.074-40.718l-198.471-495.975c-4.468-11.188-15.158-18.482-27.076-18.482h-639.012c-16.686-0.069-29.804 13.963-29.268 30.499v707.903zM122.431 270.76l111.4 328.391c4.049 11.964 15.146 19.974 27.634 19.974h564.48v49.989h-368.837c-8.372 0-16.322 3.617-21.907 9.99l-81.608 93.7h-231.162v-502.045zM712.618 123.146l174.752 436.785h-605.047l-148.167-436.785h578.462z" />
<glyph unicode="&#xe907;" glyph-name="ISP_Icon_Deleghe1" d="M752.155 550.613c-15.647 130.607-126.823 231.851-261.645 231.851-14.554 0-26.353 11.799-26.353 26.353s11.799 26.353 26.353 26.353c163.044 0 297.268-123.388 314.391-281.88l12.755 12.755c10.291 10.291 26.977 10.291 37.269 0s10.291-26.977 0-37.269l-59.1-59.1c-10.291-10.291-26.977-10.291-37.269 0l-59.1 59.1c-10.291 10.291-10.291 26.977 0 37.269s26.977 10.291 37.269 0l15.431-15.431zM271.845 398.093c15.647-130.607 126.823-231.851 261.645-231.851 14.554 0 26.353-11.799 26.353-26.353s-11.799-26.353-26.353-26.353c-163.044 0-297.268 123.388-314.391 281.88l-12.755-12.755c-10.291-10.291-26.977-10.291-37.269 0s-10.291 26.977 0 37.269l59.1 59.1c10.291 10.291 26.977 10.291 37.269 0l59.1-59.1c10.291-10.291 10.291-26.977 0-37.269s-26.977-10.291-37.269 0l-15.431 15.431zM714.537 200.502c-35.288 20.545-59.008 58.781-59.008 102.557 0 65.494 53.094 118.588 118.588 118.588s118.588-53.094 118.588-118.588c0-43.344-23.253-81.256-57.965-101.943 72.836-24.669 125.26-93.594 125.26-174.763 0-14.554-11.799-26.353-26.353-26.353s-26.353 11.799-26.353 26.353c0 72.772-58.993 131.765-131.765 131.765s-131.765-58.993-131.765-131.765c0-14.554-11.799-26.353-26.353-26.353s-26.353 11.799-26.353 26.353c0 80.505 51.57 148.966 123.478 174.149zM187.478 674.855c-35.288 20.545-59.008 58.781-59.008 102.557 0 65.494 53.094 118.588 118.588 118.588s118.588-53.094 118.588-118.588c0-43.344-23.253-81.256-57.965-101.943 72.836-24.669 125.26-93.594 125.26-174.763 0-14.554-11.799-26.353-26.353-26.353s-26.353 11.799-26.353 26.353c0 72.772-58.993 131.765-131.765 131.765s-131.765-58.993-131.765-131.765c0-14.554-11.799-26.353-26.353-26.353s-26.353 11.799-26.353 26.353c0 80.505 51.57 148.966 123.478 174.149zM247.058 711.529c36.386 0 65.882 29.497 65.882 65.882s-29.497 65.882-65.882 65.882c-36.386 0-65.882-29.497-65.882-65.882s29.497-65.882 65.882-65.882zM774.117 237.176c36.386 0 65.882 29.497 65.882 65.882s-29.497 65.882-65.882 65.882c-36.386 0-65.882-29.497-65.882-65.882s29.497-65.882 65.882-65.882z" />
<glyph unicode="&#xe908;" glyph-name="midyearreview" d="M896 864h-768c-35.264 0-64-28.939-64-64.451v-580.060c0-35.577 28.736-64.451 64-64.451h259.392l73.472-97.386c4.352-5.93 9.728-10.957 15.552-14.759 10.688-7.154 22.912-10.892 35.392-10.892 4.224 0 8.448 0.451 12.672 1.353 16.768 3.351 31.232 13.084 40.704 27.456l62.464 94.228h268.352c35.328 0 64 28.874 64 64.451v580.060c0 35.513-28.672 64.451-64 64.451zM128 799.549h768v-580.060h-302.656l-81.344-122.973-92.864 122.973h-291.136v580.060c0 0 0 0 0 0v0zM306.048 489.474c-11.072 13.857-8.96 34.095 4.8 45.309 13.696 11.215 33.792 9.023 44.992-4.834l85.504-106.667 242.048 243.754c12.48 12.568 32.768 12.568 45.248 0s12.48-32.999 0-45.567l-267.2-269.084c-5.952-5.994-14.144-9.41-22.592-9.41-0.576 0-1.152 0-1.664 0.064-9.088 0.451-17.536 4.769-23.232 11.923l-107.904 134.51z" />
<glyph unicode="&#xe909;" glyph-name="ISP_Icon-Actions-preferiti-off" d="M721.082 832c131.747 0 238.918-105.212 238.918-234.539 0-149.547-74.853-237.899-429.161-521.197l-15.341-12.264h-6.995l-15.342 12.265c-354.308 283.297-429.161 371.649-429.161 521.196 0 129.327 107.171 234.539 238.918 234.539 88.892 0 146.055-33.793 209.082-102.349 63.027 68.556 120.19 102.349 209.082 102.349zM900.327 597.461c0 97.024-80.428 175.982-179.245 175.982-74.633 0-114.5-26.523-176.956-96.526l-27.991-30.866h-8.271l-28.020 30.899c-62.426 69.97-102.293 96.493-176.926 96.493-98.818 0-179.245-78.958-179.245-175.982 0-123.84 69.291-204.802 388.327-460.686 319.036 255.884 388.327 336.846 388.327 460.686z" />
<glyph unicode="&#xe90a;" glyph-name="Action_Preferiti_On" d="M721.082 832c131.747 0 238.918-105.212 238.918-234.539 0-149.547-74.853-237.899-429.161-521.197l-15.341-12.264h-6.995l-15.342 12.265c-354.308 283.297-429.161 371.649-429.161 521.196 0 129.327 107.171 234.539 238.918 234.539 88.892 0 146.055-33.793 209.082-102.349 63.027 68.556 120.19 102.349 209.082 102.349z" />
<glyph unicode="&#xe90b;" glyph-name="ISP_Icon_rotate-neg" d="M465.032 728.567c-168.596-22.169-296.47-161.452-296.47-327.573 0-182.554 153.712-330.638 343.438-330.638s343.438 148.084 343.438 330.638c0 19.481 16.294 35.178 36.281 35.178s36.281-15.697 36.281-35.178c0-221.515-186.3-400.994-416-400.994s-416 179.479-416 400.994c0 196.211 146.992 361.93 344.029 395.016l-59.062 34.072c-17.309 9.985-23.565 31.72-13.817 48.591s31.714 22.325 49.024 12.339l138.462-79.875c17.309-9.985 23.565-31.72 13.817-48.591l-77.077-133.392c-9.748-16.871-31.714-22.325-49.024-12.339s-23.565 31.72-13.817 48.591l36.497 63.162z" />
<glyph unicode="&#xe90c;" glyph-name="ISP_Icon_Scheda" d="M547.584 896h-325.696c-16.512 0-29.888-13.376-29.888-29.888v-836.224c0-16.448 13.376-29.888 29.888-29.888h580.224c16.448 0 29.888 13.44 29.888 29.888v567.424l-284.416 298.688zM560.512 826.112l203.2-213.44h-203.2v213.44zM230.784 38.848v818.368h290.816v-263.936c0-10.688 8.704-19.392 19.456-19.392h252.032v-534.976l-562.304-0.064zM762.048 408.128c0-10.752-8.704-19.456-19.456-19.456h-465.408c-10.688 0-19.392 8.704-19.392 19.456s8.704 19.456 19.392 19.456h465.408c10.752 0 19.456-8.704 19.456-19.456zM762.048 288.704c0-10.752-8.704-19.456-19.456-19.456h-465.408c-10.688 0-19.392 8.704-19.392 19.456s8.704 19.456 19.392 19.456h465.408c10.752-0.064 19.456-8.704 19.456-19.456zM762.048 169.216c0-10.752-8.704-19.456-19.456-19.456h-465.408c-10.688 0-19.392 8.704-19.392 19.456s8.704 19.456 19.392 19.456h465.408c10.752-0.064 19.456-8.704 19.456-19.456zM259.904 597.312c0-10.688 8.704-19.392 19.392-19.392s19.392 8.704 19.392 19.392c0 38.656 30.464 70.208 67.84 70.208 37.44 0 67.904-31.488 67.904-70.208 0-10.688 8.704-19.392 19.392-19.392s19.392 8.704 19.392 19.392c0 40.384-21.888 75.328-53.952 94.144 17.92 15.296 29.888 37.248 29.888 62.592 0 46.016-37.376 83.392-83.392 83.392s-83.392-37.312-83.392-83.328c0-25.664 12.288-47.808 30.592-63.104-31.616-18.944-53.056-53.632-53.056-93.696zM365.76 798.72c24.576 0 44.608-19.968 44.608-44.608s-19.968-44.608-44.608-44.608-44.544 20.032-44.544 44.608 19.968 44.608 44.544 44.608z" />
<glyph unicode="&#xe90d;" glyph-name="ISP_Icon_Search_icon" d="M937.747 19.357v0c-12.554-10.92-31.401-10.324-43.239 1.367l-234.484 231.56c-64.667-47.948-141.954-73.115-226.715-73.115-203.133 0-369.309 161.274-369.309 358.416s166.176 358.416 369.309 358.416c203.133 0 369.309-161.274 369.309-358.416 0-93.56-37.673-182.284-102.183-246.961l238.4-231.368c10.742-10.425 10.998-27.583 0.574-38.325-0.531-0.548-1.086-1.073-1.662-1.573zM433.309 234.412c75.68 0 147.737 27.070 205.149 73.492 65.527 59.052 102.693 137.954 102.693 225.27 0 168.938-138.315 303.173-312.387 303.173s-312.387-134.235-312.389-303.026c4.5-165.969 144.22-298.909 316.934-298.909z" />
<glyph unicode="&#xe90e;" glyph-name="Arrow_down_on-01" d="M831.842 640c35.434 0 45.637-21.608 22.333-48.797l-300.349-350.407c-23.1-26.95-60.347-27.189-83.651 0l-300.349 350.407c-23.1 26.95-12.657 48.797 22.333 48.797h639.683z" />
<glyph unicode="&#xe90f;" glyph-name="ISP_Icon_Torni_su" d="M740.536 439.855v-390.982c0-26.992-22.669-48.873-50.634-48.873h-575.269c-27.964 0-50.634 21.881-50.634 48.873s22.669 48.873 50.634 48.873h524.635v342.109h-185.657c-26.052 0-42.285 27.278-29.158 48.999l236.291 390.982c13.026 21.553 45.289 21.553 58.315 0l236.291-390.982c13.127-21.721-3.105-48.999-29.158-48.999h-185.657z" />
<glyph unicode="&#xe910;" glyph-name="icon-magic" d="M517.252 488.33l34.181-34.181 118.511 118.512-34.181 34.181-118.512-118.512zM479.142 450.221l-357.484-357.484 34.181-34.181 357.484 357.484-34.181 34.181zM578.43 412.783c-0.927-5.585-3.661-11.103-8.15-15.591s-10.006-7.222-15.591-8.15l-381.806-381.806c-9.464-9.464-24.789-9.485-34.227-0.046l-68.362 68.362c-9.439 9.439-9.418 24.763 0.046 34.227l548.379 548.379c9.464 9.464 24.789 9.485 34.227 0.046l68.362-68.362c9.439-9.439 9.418-24.763-0.046-34.227l-142.833-142.833zM757.845 648.26c-9.439-9.464-24.742-9.464-34.181 0s-9.439 24.809 0 34.274l96.679 96.941c9.439 9.464 24.742 9.464 34.181 0s9.439-24.809 0-34.274l-96.679-96.941zM639.794 734.73c0.018-13.367-10.803-24.188-24.17-24.17s-24.217 10.868-24.235 24.235l-0.185 136.91c-0.018 13.367 10.803 24.188 24.17 24.17s24.217-10.868 24.235-24.235l0.185-136.91zM798.98 514.045c-13.367-0.018-24.188 10.803-24.17 24.17s10.868 24.217 24.235 24.235l136.91 0.185c13.367 0.018 24.188-10.803 24.17-24.17s-10.868-24.217-24.235-24.235l-136.91-0.185zM514.418 687.112c9.464-9.439 9.464-24.742 0-34.181s-24.809-9.439-34.274 0l-96.941 96.679c-9.464 9.439-9.464 24.742 0 34.181s24.809 9.439 34.274 0l96.941-96.679zM724.517 424.268c-9.464 9.439-9.464 24.742 0 34.181s24.809 9.439 34.274 0l96.941-96.679c9.464-9.439 9.464-24.742 0-34.181s-24.809-9.439-34.274 0l-96.941 96.679z" />
<glyph unicode="&#xe911;" glyph-name="Arrow_up_on-01" d="M831.842 256c35.434 0 45.637 21.608 22.333 48.797l-300.349 350.407c-23.1 26.95-60.347 27.189-83.651 0l-300.349-350.407c-23.1-26.95-12.657-48.797 22.333-48.797h639.683z" />
<glyph unicode="&#xe912;" glyph-name="ISP_Icon_VistaGrafico_off" d="M512 874.667c235.648 0 426.667-191.019 426.667-426.667s-191.019-426.667-426.667-426.667c-235.648 0-426.667 191.019-426.667 426.667s191.019 426.667 426.667 426.667zM512 43.136c223.595 0 404.864 181.269 404.864 404.864s-181.269 404.864-404.864 404.864c-223.595 0-404.864-181.269-404.864-404.864s181.269-404.864 404.864-404.864zM288 298.312h458.667c5.891 0 10.667-4.776 10.667-10.667s-4.776-10.667-10.667-10.667h-469.333c-5.891 0-10.667 4.776-10.667 10.667v309.688c0 5.891 4.776 10.667 10.667 10.667s10.667-4.776 10.667-10.667v-299.021zM448.484 484.726l-122.104-91.122c-4.721-3.523-11.405-2.552-14.928 2.169s-2.552 11.405 2.169 14.928l131.038 97.789c4.869 3.634 11.785 2.473 15.201-2.552l64.263-94.529 118.085 88.2c3.921 2.929 9.331 2.813 13.124-0.279l64.349-52.472c4.566-3.723 5.249-10.442 1.526-15.008s-10.442-5.249-15.008-1.526l-57.896 47.21-120.349-89.891c-4.869-3.637-11.788-2.477-15.204 2.549l-64.265 94.533z" />
<glyph unicode="&#xe913;" glyph-name="ISP_Icon_VistaGrafico_ofn" horiz-adv-x="1040" d="M512 874.667c235.648 0 426.667-191.019 426.667-426.667s-191.019-426.667-426.667-426.667-426.667 191.019-426.667 426.667 191.019 426.667 426.667 426.667zM277.333 608c-5.891 0-10.667-4.776-10.667-10.667v0-309.696c0-5.891 4.776-10.667 10.667-10.667v0h469.333c5.891 0 10.667 4.776 10.667 10.667s-4.776 10.667-10.667 10.667v0h-458.667v299.029c0 5.891-4.776 10.667-10.667 10.667v0zM459.861 505.941c-1.945 2.841-5.172 4.68-8.828 4.68-2.406 0-4.625-0.796-6.41-2.14l0.027 0.020-131.029-97.792c-2.617-1.967-4.292-5.065-4.292-8.555 0-5.893 4.778-10.671 10.671-10.671 2.404 0 4.622 0.795 6.406 2.136l-0.027-0.020 122.112 91.136 64.256-94.549c1.945-2.841 5.172-4.68 8.828-4.68 2.406 0 4.625 0.796 6.41 2.14l-0.027-0.020 120.341 89.899 57.899-47.189c1.821-1.494 4.176-2.4 6.741-2.4 5.891 0 10.667 4.776 10.667 10.667 0 3.325-1.522 6.296-3.907 8.252l-0.019 0.015-64.341 52.48c-1.82 1.491-4.172 2.395-6.734 2.395-2.416 0-4.645-0.804-6.434-2.158l0.027 0.019-118.080-88.192z" />
<glyph unicode="&#xe914;" glyph-name="ISP_icon_zoomIn_Off" d="M512-64c-282.77 0-512 229.23-512 512s229.23 512 512 512c282.77 0 512-229.23 512-512s-229.23-512-512-512zM512-32c265.097 0 480 214.903 480 480s-214.903 480-480 480c-265.097 0-480-214.903-480-480s214.903-480 480-480zM563.807 488.301c10.667 0 18.288-7.617 18.288-18.281s-7.622-18.281-18.288-18.281h-64.929v-64.887c0-10.664-7.622-18.281-18.288-18.281s-18.288 7.617-18.288 18.281v64.887h-64.929c-10.667 0-18.288 7.617-18.288 18.281s7.622 18.281 18.288 18.281h64.929v64.887c0 10.664 7.622 18.281 18.288 18.281s18.288-7.617 18.288-18.281v-64.887h64.929zM622.712 348.906l132.478-132.57c10.11-6.736 11.293-18.552 3.353-26.487-3.705-3.703-6.438-4.249-14.035-4.249s-10.329 0.546-14.035 4.249l-133.947 133.868c-33.942-25.133-74.253-38.315-118.315-38.315-108.15 0-196.612 88.409-196.612 196.499s88.462 196.499 196.612 196.499c108.15 0 196.612-88.409 196.612-196.499 0-50.139-19.163-97.746-52.112-132.995zM480.59 321.964c38.772 0 75.71 14.29 105.018 38.687 33.604 31.186 52.639 72.8 52.639 118.873 0 89.138-70.841 159.937-160.035 159.937s-160.035-70.799-160.038-159.768c2.306-87.579 73.902-157.729 162.415-157.729z" />
<glyph unicode="&#xe915;" glyph-name="ISP_icon_zoomIn_On" d="M512-64c-282.77 0-512 229.23-512 512s229.23 512 512 512c282.77 0 512-229.23 512-512s-229.23-512-512-512zM563.807 488.301h-64.929v64.887c0 10.664-7.622 18.281-18.288 18.281s-18.288-7.617-18.288-18.281v-64.887h-64.929c-10.667 0-18.288-7.617-18.288-18.281s7.622-18.281 18.288-18.281h64.929v-64.887c0-10.664 7.622-18.281 18.288-18.281s18.288 7.617 18.288 18.281v64.887h64.929c10.667 0 18.288 7.617 18.288 18.281s-7.622 18.281-18.288 18.281zM622.712 348.906c32.949 35.249 52.112 82.856 52.112 132.995 0 108.090-88.462 196.499-196.612 196.499s-196.612-88.409-196.612-196.499c0-108.090 88.462-196.499 196.612-196.499 44.062 0 84.373 13.182 118.315 38.315l133.947-133.868c3.705-3.703 6.438-4.249 14.035-4.249s10.329 0.546 14.035 4.249c7.939 7.935 6.757 19.75-3.353 26.487l-132.478 132.57zM480.59 321.964c-88.514 0-160.109 70.15-162.415 157.729 0.002 88.969 70.843 159.768 160.038 159.768s160.035-70.799 160.035-159.937c0-46.073-19.035-87.688-52.639-118.873-29.308-24.397-66.246-38.687-105.018-38.687z" />
<glyph unicode="&#xe916;" glyph-name="ISP_icon_zoomOut_Off" d="M512-64c-282.77 0-512 229.23-512 512s229.23 512 512 512c282.77 0 512-229.23 512-512s-229.23-512-512-512zM512-32c265.097 0 480 214.903 480 480s-214.903 480-480 480c-265.097 0-480-214.903-480-480s214.903-480 480-480zM563.807 488.301c10.667 0 18.288-7.617 18.288-18.281s-7.622-18.281-18.288-18.281h-166.435c-10.667 0-18.288 7.617-18.288 18.281s7.622 18.281 18.288 18.281h166.435zM622.712 348.906l132.478-132.57c10.11-6.736 11.293-18.552 3.353-26.487-3.705-3.703-6.438-4.249-14.035-4.249s-10.329 0.546-14.035 4.249l-133.947 133.868c-33.942-25.133-74.253-38.315-118.315-38.315-108.15 0-196.612 88.409-196.612 196.499s88.462 196.499 196.612 196.499c108.15 0 196.612-88.409 196.612-196.499 0-50.139-19.163-97.746-52.112-132.995zM480.59 321.964c38.772 0 75.71 14.29 105.018 38.687 33.604 31.186 52.639 72.8 52.639 118.873 0 89.138-70.841 159.937-160.035 159.937s-160.035-70.799-160.038-159.768c2.306-87.579 73.902-157.729 162.415-157.729z" />
<glyph unicode="&#xe917;" glyph-name="ISP_icon_zoomOut_On" d="M512-64c-282.77 0-512 229.23-512 512s229.23 512 512 512c282.77 0 512-229.23 512-512s-229.23-512-512-512zM563.807 488.301h-166.435c-10.667 0-18.288-7.617-18.288-18.281s7.622-18.281 18.288-18.281h166.435c10.667 0 18.288 7.617 18.288 18.281s-7.622 18.281-18.288 18.281zM622.712 348.906c32.949 35.249 52.112 82.856 52.112 132.995 0 108.090-88.462 196.499-196.612 196.499s-196.612-88.409-196.612-196.499c0-108.090 88.462-196.499 196.612-196.499 44.062 0 84.373 13.182 118.315 38.315l133.947-133.868c3.705-3.703 6.438-4.249 14.035-4.249s10.329 0.546 14.035 4.249c7.939 7.935 6.757 19.75-3.353 26.487l-132.478 132.57zM480.59 321.964c-88.514 0-160.109 70.15-162.415 157.729 0.002 88.969 70.843 159.768 160.038 159.768s160.035-70.799 160.035-159.937c0-46.073-19.035-87.688-52.639-118.873-29.308-24.397-66.246-38.687-105.018-38.687z" />
<glyph unicode="&#xe918;" glyph-name="DashBoardIcon" d="M517.12-30.72c260.134 0 471.040 211.456 471.040 472.32s-210.906 472.32-471.040 472.32c-260.134 0-471.040-211.456-471.040-472.32s210.906-472.32 471.040-472.32zM517.12-51.2c-271.462 0-491.52 220.634-491.52 492.8s220.058 492.8 491.52 492.8c271.462 0 491.52-220.634 491.52-492.8s-220.058-492.8-491.52-492.8zM275.878 684.813c0.026 0.038 0.026 0.064 0.064 0.102 0.294 0.294 0.781 0.794 1.126 1.139 0.371 0.371 0.717 0.768 1.088 1.126l0.051 0.026c2.637 2.675 6.438 6.502 11.622 11.738h-47.526c-5.658 0-10.24 4.582-10.24 10.24s4.582 10.24 10.24 10.24h74.048c5.658 0 10.24-4.582 10.24-10.24v-76.736c0-5.658-4.582-10.24-10.24-10.24s-10.24 4.582-10.24 10.24v53.53c-3.456-3.52-7.834-7.846-13.53-13.325-62.566-62.042-98.483-146.816-98.483-237.453 0-183.232 146.125-331.635 326.221-331.635s326.208 148.403 326.208 331.635c0 183.232-146.112 331.635-326.208 331.635-0.205 0-0.397 0.013-0.589 0.026-0.051 0-0.102 0-0.154 0-5.658 0-10.24 4.582-10.24 10.24s4.582 10.24 10.24 10.24c0.243 0 0.499-0.013 0.742-0.026 191.475 0 346.701-157.645 346.701-352.115s-155.226-352.115-346.701-352.115c-191.475 0-346.701 157.645-346.701 352.115 0 97.574 39.13 185.843 102.259 249.613zM508.16 691.2c0 5.658 4.582 10.24 10.24 10.24s10.24-4.582 10.24-10.24v-32.589c0-5.658-4.582-10.24-10.24-10.24s-10.24 4.582-10.24 10.24v32.589zM637.53 662.029c2.829 4.902 9.088 6.579 13.99 3.75s6.579-9.088 3.75-13.99l-3.2-5.542c-2.829-4.902-9.088-6.579-13.99-3.75s-6.579 9.088-3.75 13.99l3.2 5.542zM734.989 572.070c4.902 2.829 11.162 1.152 13.99-3.75s1.152-11.162-3.75-13.99l-5.542-3.2c-4.902-2.829-11.162-1.152-13.99 3.75s-1.152 11.162 3.75 13.99l5.542 3.2zM774.4 445.44c5.658 0 10.24-4.582 10.24-10.24s-4.582-10.24-10.24-10.24h-32.589c-5.658 0-10.24 4.582-10.24 10.24s4.582 10.24 10.24 10.24h32.589zM745.229 316.070c4.902-2.829 6.579-9.088 3.75-13.99s-9.088-6.579-13.99-3.75l-5.542 3.2c-4.902 2.829-6.579 9.088-3.75 13.99s9.088 6.579 13.99 3.75l5.542-3.2zM655.27 218.611c2.829-4.902 1.152-11.162-3.75-13.99s-11.162-1.152-13.99 3.75l-3.2 5.542c-2.829 4.902-1.152 11.162 3.75 13.99s11.162 1.152 13.99-3.75l3.2-5.542zM528.64 179.2c0-5.658-4.582-10.24-10.24-10.24s-10.24 4.582-10.24 10.24v32.589c0 5.658 4.582 10.24 10.24 10.24s10.24-4.582 10.24-10.24v-32.589zM399.27 208.371c-2.829-4.902-9.088-6.579-13.99-3.75s-6.579 9.088-3.75 13.99l3.2 5.542c2.829 4.902 9.088 6.579 13.99 3.75s6.579-9.088 3.75-13.99l-3.2-5.542zM301.811 298.33c-4.902-2.829-11.162-1.152-13.99 3.75s-1.152 11.162 3.75 13.99l5.542 3.2c4.902 2.829 11.162 1.152 13.99-3.75s1.152-11.162-3.75-13.99l-5.542-3.2zM262.4 424.96c-5.658 0-10.24 4.582-10.24 10.24s4.582 10.24 10.24 10.24h32.589c5.658 0 10.24-4.582 10.24-10.24s-4.582-10.24-10.24-10.24h-32.589zM291.571 554.33c-4.902 2.829-6.579 9.088-3.75 13.99s9.088 6.579 13.99 3.75l5.542-3.2c4.902-2.829 6.579-9.088 3.75-13.99s-9.088-6.579-13.99-3.75l-5.542 3.2zM381.53 651.789c-2.829 4.902-1.152 11.162 3.75 13.99s11.162 1.152 13.99-3.75l3.2-5.542c2.829-4.902 1.152-11.162-3.75-13.99s-11.162-1.152-13.99 3.75l-3.2 5.542zM631.629 435.507c0-5.658-4.582-10.24-10.24-10.24h-79.245c-3.827-9.306-12.966-15.872-23.667-15.872-14.144 0-25.6 11.456-25.6 25.6 0 10.458 6.298 19.43 15.283 23.398v130.406c0 5.658 4.582 10.24 10.24 10.24s10.24-4.582 10.24-10.24v-130.33c5.747-2.496 10.355-7.053 12.992-12.723h79.757c5.658 0 10.24-4.582 10.24-10.24z" />
<glyph unicode="&#xe919;" glyph-name="ISP_Icon_Dashboard_trasferte" d="M397.036 580.425c-42.821-33.97-70.331-86.444-70.331-145.225 0-102.176 83.12-185.295 185.295-185.295s185.295 83.12 185.295 185.295c0 60.267-28.918 113.905-73.608 147.766-1.98-1.924-4.405-3.44-7.182-4.393-17.715-6.081-17.888-6.37-22.276-13.76-2.444-4.099-5.773-9.709-12.066-17.898-0.25-0.318-0.298-0.77-0.25-0.924 1.857-6.37 0.529-12.576-3.733-17.474-7.072-8.131-20.544-10.306-30.002-8.91-4.821 0.712-8.343 4.917-8.217 9.786 0.067 2.069-0.337 2.762-0.346 2.762-1.472 1.087-10.469 1.126-26.683-6.418-0.933-0.433-1.934-0.722-2.964-0.837l-2.964-0.327c-2.454-0.279-4.975-0.568-6.745-0.837-0.010-0.154-0.019-0.318-0.029-0.491l0.664-1.318c-0.106 0.125 0.645-0.058 1.414-0.26 3.272-0.847 8.487-2.204 11.614-5.831 0.577 0.019 1.155 0.010 1.79 0.010 1.799-0.038 6.024-0.106 9.901-2.685 6.765-4.513 6.774-11.499 6.774-14.857v-0.231c0.221-0.087 0.433-0.173 0.654-0.26 1.847-0.779 4.388-1.847 6.736-3.859 3.868-3.31 5.514-7.428 6.707-10.421 0.423-1.058 1.049-2.656 1.405-3.021 1.607-1.366 3.916 0.25 4.369 0.577 11.643 8.756 21.968 3.733 29.521 0.087 4.176-2.021 8.487-4.109 13.673-4.773 4.821-0.625 8.939-2.598 11.903-5.716 6.649-6.986 11.46-15.174 15.694-22.391 5.090-8.67 9.488-16.156 15.251-19.148 20.582-10.69 9.324-40.231 2.588-57.878-1.020-2.656-1.944-5.081-2.646-7.14-0.645-1.896-2.329-4.138-3.955-5.312-8.602-6.331-13.741-13.683-19.687-22.199-5.619-8.054-11.989-17.166-22.064-25.846-14.51-12.471-26.943-20.014-41.588-25.22-2.204-0.779-4.465-1.164-6.688-1.164-5.696 0-11.2 2.483-15.059 7.053-5.331 6.322-6.168 15.040-2.165 22.237 20.659 36.979 16.637 48.381 12.413 51.884-5.042 4.176-11.268 8.362-17.282 12.422-19.341 13.029-43.406 29.252-33.592 53.337 0.164 0.395-0.51 1.28-1.607 1.857-7.823 4.147-8.939 12.538-9.844 19.293-0.568 4.263-1.155 8.679-3.108 11.537 0.087-0.164-0.462 0.26-0.702 0.404-5.725 2.81-11.605 3.656-18.417 4.648-6.264 0.914-13.356 1.944-20.784 4.792-23.344 8.958-26.24 38.817-28.79 65.162-1.366 14.135-2.79 28.742-7.044 37.922-0.52 1.116-0.936 2.285-1.244 3.488zM415.949 593.608c-0.065-2.529-0.169-5.157-0.31-7.933 5.735-12.788 7.313-29.059 8.833-44.802 2.117-21.804 4.311-44.359 16.541-49.055 5.417-2.078 10.873-2.867 16.666-3.714 7.698-1.116 15.665-2.271 24.152-6.437 2.531-1.232 6.024-3.81 8.064-6.793 4.551-6.649 5.523-13.972 6.303-19.861 0.241-1.722 0.568-4.186 0.924-5.465 9.237-5.533 13.125-16.050 9.276-25.49-3.637-8.939 8.14-17.724 26.529-30.118 6.399-4.311 13.019-8.776 18.792-13.548 21.217-17.58 5.668-51.855-7.871-76.103 13.096 3.82 23.373 10.103 36.132 21.083 8.246 7.082 13.394 14.462 18.841 22.266 5.956 8.506 12.086 17.291 22.083 25.182 0.606 1.636 1.28 3.416 2.001 5.312 7.89 20.678 10.075 32.091 6.524 33.948-10.671 5.542-16.926 16.185-22.969 26.471-3.897 6.639-7.929 13.491-13.048 18.869-8.708 0.962-14.982 3.993-20.005 6.428-7.4 3.57-7.688 3.291-9.593 1.857-9.026-6.755-20.457-6.668-28.463 0.221-3.897 3.329-5.533 7.457-6.736 10.479-0.414 1.030-1.039 2.579-1.376 2.954-0.414 0.25-1.049 0.462-1.674 0.722-2.694 1.135-7.198 3.031-10.075 7.804-1.867 3.098-2.242 6.216-2.329 8.66-0.789-0.029-1.472-0.077-2.165-0.125-1.636-0.115-3.262-0.212-4.898-0.231-2.944-0.154-6.543 1.722-8.314 4.619-0.452 0.77-0.808 1.578-1.039 2.425-1.876 0.491-3.656 1.010-5.273 1.915-7.14 4.013-10.854 10.758-10.469 19.004 0.779 16.955 10.459 18.042 23.863 19.543l1.386 0.154c14.010 6.341 32.485 11.874 44.013 4.32 2.694-1.78 5.696-4.696 7.448-9.382 3.002 0.529 5.369 1.568 5.975 2.396-2.040 5.562-0.751 12.297 3.204 17.455 5.6 7.284 8.477 12.124 10.787 16.012 6.42 10.801 9.503 13.922 27.84 20.474-27.466 16.123-59.432 25.374-93.519 25.374-35.14 0-68.025-9.831-96.051-26.888zM517.12-30.72c260.136 0 471.040 211.453 471.040 472.32s-210.904 472.32-471.040 472.32c-260.136 0-471.040-211.453-471.040-472.32s210.904-472.32 471.040-472.32zM517.12-51.2c-271.459 0-491.52 220.634-491.52 492.8s220.061 492.8 491.52 492.8c271.459 0 491.52-220.634 491.52-492.8s-220.061-492.8-491.52-492.8zM576.921 701.538c-6.129 1.52-12.345 2.839-18.494 3.916-5.235 0.914-8.727 5.898-7.823 11.133 0.914 5.235 5.85 8.766 11.152 7.823 6.572-1.155 13.25-2.569 19.803-4.205 5.158-1.28 8.304-6.505 7.024-11.662-1.097-4.369-5.023-7.294-9.334-7.294-0.77 0-1.549 0.087-2.329 0.289zM630.085 682.101c-5.687 2.79-11.489 5.389-17.253 7.727-4.917 2.001-7.294 7.611-5.302 12.538 1.992 4.936 7.631 7.274 12.538 5.302 6.178-2.511 12.394-5.292 18.494-8.285 4.773-2.338 6.736-8.102 4.397-12.875-1.665-3.406-5.081-5.389-8.641-5.389-1.424 0-2.867 0.318-4.234 0.981zM678.023 651.945c-4.946 3.878-10.075 7.64-15.271 11.172-4.388 2.983-5.533 8.968-2.55 13.365 2.993 4.378 8.968 5.523 13.375 2.55 5.552-3.782 11.046-7.804 16.339-11.961 4.176-3.281 4.907-9.324 1.617-13.51-1.896-2.415-4.715-3.676-7.573-3.676-2.078 0-4.176 0.674-5.937 2.059zM718.601 612.474c-4.041 4.859-8.294 9.593-12.605 14.097-3.676 3.83-3.551 9.921 0.279 13.596 3.83 3.695 9.93 3.56 13.606-0.269 4.628-4.821 9.16-9.892 13.5-15.088 3.406-4.089 2.848-10.152-1.222-13.558-1.809-1.501-3.984-2.232-6.158-2.232-2.762 0-5.494 1.184-7.4 3.454zM263.608 568.673c-4.628 2.608-6.264 8.487-3.656 13.106 3.291 5.831 6.851 11.643 10.565 17.282 2.935 4.436 8.92 5.648 13.337 2.723 4.436-2.925 5.658-8.901 2.733-13.337-3.474-5.254-6.793-10.681-9.863-16.127-1.771-3.137-5.042-4.888-8.4-4.888-1.597 0-3.214 0.395-4.715 1.241zM750.075 565.459c-2.916 5.533-6.072 11.046-9.382 16.387-2.8 4.522-1.405 10.45 3.118 13.25 4.513 2.8 10.44 1.405 13.24-3.108 3.551-5.725 6.928-11.633 10.046-17.57 2.483-4.696 0.674-10.517-4.022-12.99-1.434-0.751-2.964-1.107-4.474-1.107-3.464 0-6.803 1.857-8.525 5.138zM242.228 514.047c-5.081 1.578-7.919 6.976-6.341 12.047 1.992 6.408 4.253 12.836 6.707 19.12 1.934 4.946 7.505 7.38 12.471 5.465 4.936-1.944 7.39-7.525 5.456-12.471-2.29-5.85-4.388-11.855-6.245-17.83-1.289-4.128-5.090-6.765-9.199-6.765-0.933 0-1.905 0.135-2.848 0.433zM771.004 512.902c-1.694 6.043-3.618 12.095-5.735 18.003-1.79 5.004 0.818 10.517 5.822 12.297 5.032 1.79 10.508-0.818 12.297-5.812 2.261-6.331 4.33-12.827 6.149-19.293 1.434-5.119-1.559-10.431-6.678-11.864-0.866-0.241-1.742-0.366-2.598-0.366-4.205 0-8.064 2.781-9.257 7.034zM232.769 456.13c-5.292 0.481-9.199 5.158-8.718 10.45 0.606 6.745 1.463 13.519 2.54 20.111 0.847 5.235 5.716 8.833 11.046 7.948 5.244-0.856 8.804-5.802 7.948-11.046-1.001-6.139-1.799-12.451-2.367-18.744-0.452-4.994-4.648-8.756-9.574-8.756-0.289 0-0.587 0.010-0.876 0.038zM780.415 457.131c-0.375 6.168-0.981 12.49-1.819 18.792-0.702 5.263 2.993 10.103 8.266 10.806 5.283 0.693 10.113-3.002 10.806-8.275 0.905-6.745 1.559-13.539 1.953-20.168 0.327-5.302-3.714-9.853-9.016-10.18-0.202-0.010-0.395-0.019-0.597-0.019-5.042 0-9.286 3.945-9.593 9.045zM224.859 405.959c-0.779 6.62-1.347 13.414-1.665 20.168-0.25 5.312 3.849 9.815 9.16 10.075 5.177 0.087 9.815-3.859 10.065-9.16 0.298-6.312 0.818-12.644 1.549-18.831 0.625-5.273-3.147-10.055-8.429-10.681-0.385-0.038-0.76-0.067-1.135-0.067-4.811 0-8.968 3.599-9.545 8.497zM786.207 389.621c-5.263 0.77-8.901 5.658-8.131 10.921 0.914 6.206 1.607 12.519 2.088 18.773 0.404 5.302 4.898 9.314 10.325 8.872 5.302-0.404 9.266-5.023 8.862-10.325-0.51-6.697-1.261-13.471-2.232-20.12-0.702-4.782-4.811-8.217-9.516-8.217-0.462 0-0.924 0.029-1.395 0.096zM238.263 346.82c-2.165 6.36-4.128 12.875-5.85 19.379-1.357 5.138 1.713 10.402 6.851 11.758 5.061 1.338 10.402-1.703 11.758-6.841 1.607-6.062 3.435-12.153 5.456-18.080 1.722-5.032-0.972-10.508-6.004-12.22-1.020-0.346-2.078-0.52-3.098-0.52-4.003 0-7.746 2.521-9.112 6.524zM769.599 333.368c-4.965 1.867-7.486 7.419-5.629 12.394 2.194 5.841 4.205 11.864 5.985 17.898 1.501 5.090 6.851 8.015 11.951 6.505 5.1-1.491 8.015-6.851 6.505-11.941-1.905-6.485-4.070-12.952-6.418-19.216-1.443-3.868-5.119-6.255-9.007-6.255-1.126 0-2.271 0.202-3.387 0.616zM263.801 291.829c-3.454 5.754-6.745 11.701-9.796 17.695-2.406 4.734-0.51 10.527 4.224 12.942 4.734 2.406 10.517 0.52 12.932-4.224 2.839-5.591 5.927-11.152 9.141-16.522 2.733-4.561 1.261-10.469-3.31-13.202-1.54-0.924-3.252-1.366-4.936-1.366-3.272 0-6.457 1.665-8.256 4.676zM741.569 281.812c-4.474 2.867-5.773 8.824-2.916 13.298 3.377 5.273 6.62 10.748 9.622 16.262 2.531 4.667 8.371 6.399 13.058 3.859 4.657-2.54 6.389-8.391 3.839-13.058-3.223-5.918-6.688-11.787-10.315-17.445-1.828-2.867-4.946-4.436-8.112-4.436-1.771 0-3.57 0.491-5.177 1.52zM300.25 243.39c-4.561 4.898-9.026 10.036-13.269 15.28-3.349 4.138-2.704 10.19 1.424 13.539s10.2 2.685 13.539-1.434c3.964-4.898 8.131-9.699 12.384-14.27 3.628-3.887 3.406-9.978-0.481-13.596-1.847-1.732-4.215-2.579-6.562-2.579-2.569 0-5.148 1.030-7.034 3.060zM703.388 237.261c-3.772 3.733-3.81 9.834-0.067 13.606 4.417 4.484 8.718 9.16 12.788 13.914 3.474 4.032 9.545 4.484 13.567 1.039 4.041-3.454 4.513-9.536 1.049-13.567-4.369-5.090-8.978-10.103-13.731-14.905-1.876-1.905-4.359-2.858-6.841-2.858-2.434 0-4.879 0.924-6.765 2.771zM345.976 203.573c-5.533 3.887-10.979 7.987-16.166 12.201-4.128 3.358-4.753 9.411-1.405 13.539 3.329 4.118 9.411 4.763 13.529 1.405 4.85-3.926 9.921-7.765 15.088-11.383 4.349-3.050 5.408-9.055 2.348-13.404-1.867-2.665-4.84-4.099-7.881-4.099-1.905 0-3.83 0.568-5.514 1.742zM656.835 201.629c-2.925 4.446-1.694 10.411 2.742 13.327 5.235 3.445 10.411 7.13 15.396 10.941 4.243 3.223 10.267 2.425 13.5-1.809 3.223-4.215 2.415-10.257-1.809-13.481-5.35-4.089-10.902-8.035-16.512-11.72-1.626-1.078-3.464-1.588-5.283-1.588-3.127 0-6.197 1.52-8.035 4.33zM399.062 174.157c-6.235 2.646-12.422 5.523-18.379 8.564-4.725 2.415-6.601 8.217-4.186 12.952 2.425 4.725 8.198 6.591 12.942 4.195 5.562-2.839 11.316-5.523 17.128-7.987 4.898-2.078 7.178-7.717 5.109-12.615-1.549-3.666-5.119-5.87-8.862-5.87-1.261 0-2.531 0.241-3.753 0.76zM603.893 176.515c-1.934 4.956 0.51 10.536 5.465 12.461 5.812 2.271 11.643 4.782 17.33 7.477 4.782 2.28 10.527 0.221 12.807-4.58 2.28-4.811 0.221-10.546-4.58-12.817-6.091-2.887-12.336-5.581-18.571-8.006-1.145-0.443-2.329-0.664-3.493-0.664-3.849 0-7.477 2.329-8.958 6.129zM457.123 156.548c-6.572 1.251-13.211 2.762-19.745 4.484-5.129 1.366-8.198 6.63-6.841 11.768 1.357 5.129 6.649 8.179 11.768 6.841 6.081-1.607 12.288-3.021 18.427-4.195 5.225-1.001 8.641-6.033 7.65-11.249-0.885-4.609-4.917-7.823-9.449-7.823-0.597 0-1.203 0.058-1.809 0.173zM546.804 163.082c-0.847 5.254 2.723 10.19 7.967 11.037 6.178 0.991 12.403 2.223 18.523 3.656 5.215 1.232 10.354-2.001 11.566-7.169 1.212-5.177-2.001-10.354-7.169-11.566-6.572-1.54-13.24-2.858-19.861-3.926-0.51-0.087-1.030-0.125-1.54-0.125-4.638 0-8.727 3.368-9.488 8.092zM497.297 151.766c-5.302 0.26-9.401 4.773-9.151 10.075 0.279 5.312 5.119 9.286 10.075 9.151 6.274-0.308 12.653-0.385 18.927-0.269h0.183c5.235 0 9.526-4.186 9.622-9.43 0.106-5.312-4.118-9.709-9.43-9.815-1.992-0.038-3.984-0.058-5.995-0.058-4.773 0-9.507 0.125-14.231 0.346zM521.474 710.069c-3.079 0.106-6.187 0.164-9.295 0.164-5.321 0-9.622 4.311-9.622 9.622s4.301 9.622 9.622 9.622c3.339 0 6.639-0.058 9.949-0.164 5.312-0.183 9.478-4.638 9.286-9.949-0.173-5.196-4.446-9.295-9.603-9.295h-0.337zM512 230.4c-112.923 0-204.8 91.867-204.8 204.8s91.877 204.8 204.8 204.8c112.923 0 204.8-91.867 204.8-204.8s-91.877-204.8-204.8-204.8zM354.731 719.017c3.524 4.198 8.501 6.782 13.846 7.321 5.413 0.546 10.834-1.072 15.070-4.626 8.669-7.269 9.617-20.267 2.334-28.944l-13.627-16.274 14.137-44.495c2.997-9.429-2.36-19.671-12.054-21.977-4.579-1.089-9.382-0.165-13.17 2.405-2.622 1.779-4.427 3.812-6.65 6.991l-13.689 19.555-5.297-6.328 1.042-16.62c0.324-5.020-2.816-9.615-7.648-11.15l-5.461-1.706c-3.554-1.126-7.437-0.367-10.334 2.041l-32.131 26.955c-2.846 2.41-4.269 6.103-3.783 9.753l0.74 5.8c0.668 4.986 4.648 8.875 9.632 9.426l16.528 1.858 5.308 6.308-21.585 10.046c-3.425 1.594-5.843 3.105-8.048 5.375-3.191 3.285-4.977 7.842-4.698 12.549 0.435 7.349 5.646 13.337 12.62 15.232 2.253 0.612 4.625 0.772 6.979 0.457l46.245-6.232 13.694 16.279zM370.632 626.959l-15.521 48.852c-0.862 2.713-0.277 5.678 1.55 7.861l16.568 19.786c1.447 1.724 1.266 4.211-0.276 5.504-0.758 0.636-1.71 0.92-2.708 0.819-1.075-0.108-2.063-0.622-2.776-1.471l-16.644-19.785c-1.834-2.18-4.655-3.27-7.478-2.89l-50.772 6.842c-0.143 0.019-0.281 0.010-0.401-0.023-0.186-0.051-0.288-0.111-0.336-0.141 0.507-0.516 1.389-1.065 3.121-1.871l31.437-14.632c4.966-2.311 6.382-8.709 2.855-12.9l-14.442-17.163c-1.372-1.631-3.318-2.673-5.437-2.911l-13.321-1.498 23.601-19.799-0.839 13.378c-0.133 2.128 0.555 4.226 1.924 5.861l14.398 17.2c3.514 4.198 10.056 3.916 13.196-0.569l19.919-28.454c1.151-1.646 1.797-2.376 2.348-2.754 0.015 0.013 0.173 0.315 0.033 0.755z" />
<glyph unicode="&#xe91a;" d="M422.322 433.557c-0.141 2.659-0.213 5.341-0.213 8.043 0 4.521 0.201 8.987 0.593 13.383h-23.393c-5.302 0-9.6 4.298-9.6 9.6s4.298 9.6 9.6 9.6h26.394c11.144 49.313 46.985 85.817 90.369 85.817 33.593 0 63.718-22.15 80.485-57.155 2.29-4.782 0.271-10.515-4.511-12.805s-10.515-0.271-12.805 4.511c-13.776 28.761-37.56 46.249-63.169 46.249-32.255 0-60.362-27.634-70.622-66.617h66.574c5.302 0 9.6-4.298 9.6-9.6s-4.298-9.6-9.6-9.6h-70.040c-0.446-4.373-0.676-8.84-0.676-13.383 0-2.71 0.082-5.392 0.243-8.043h67.964c5.302 0 9.6-4.298 9.6-9.6s-4.298-9.6-9.6-9.6h-65.342c9.011-41.776 38.19-71.957 71.899-71.957 25.704 0 49.567 17.62 63.316 46.558 2.275 4.789 8.002 6.827 12.791 4.551s6.827-8.002 4.551-12.791c-16.727-35.207-46.943-57.518-80.658-57.518-44.936 0-81.78 39.162-91.47 91.157h-27.803c-5.302 0-9.6 4.298-9.6 9.6s4.298 9.6 9.6 9.6h25.522zM517.12-30.72c260.136 0 471.040 211.453 471.040 472.32s-210.904 472.32-471.040 472.32c-260.136 0-471.040-211.453-471.040-472.32s210.904-472.32 471.040-472.32zM517.12-51.2c-271.459 0-491.52 220.634-491.52 492.8s220.061 492.8 491.52 492.8c271.459 0 491.52-220.634 491.52-492.8s-220.061-492.8-491.52-492.8zM576.921 701.538c-6.129 1.52-12.345 2.839-18.494 3.916-5.235 0.914-8.727 5.898-7.823 11.133 0.914 5.235 5.85 8.766 11.152 7.823 6.572-1.155 13.25-2.569 19.803-4.205 5.158-1.28 8.304-6.505 7.024-11.662-1.097-4.369-5.023-7.294-9.334-7.294-0.77 0-1.549 0.087-2.329 0.289zM630.085 682.101c-5.687 2.79-11.489 5.389-17.253 7.727-4.917 2.001-7.294 7.611-5.302 12.538 1.992 4.936 7.631 7.274 12.538 5.302 6.178-2.511 12.394-5.292 18.494-8.285 4.773-2.338 6.736-8.102 4.397-12.875-1.665-3.406-5.081-5.389-8.641-5.389-1.424 0-2.867 0.318-4.234 0.981zM678.023 651.945c-4.946 3.878-10.075 7.64-15.271 11.172-4.388 2.983-5.533 8.968-2.55 13.365 2.993 4.378 8.968 5.523 13.375 2.55 5.552-3.782 11.046-7.804 16.339-11.961 4.176-3.281 4.907-9.324 1.617-13.51-1.896-2.415-4.715-3.676-7.573-3.676-2.078 0-4.176 0.674-5.937 2.059zM718.601 612.474c-4.041 4.859-8.294 9.593-12.605 14.097-3.676 3.83-3.551 9.921 0.279 13.596 3.83 3.695 9.93 3.56 13.606-0.269 4.628-4.821 9.16-9.892 13.5-15.088 3.406-4.089 2.848-10.152-1.222-13.558-1.809-1.501-3.984-2.232-6.158-2.232-2.762 0-5.494 1.184-7.4 3.454zM263.608 568.673c-4.628 2.608-6.264 8.487-3.656 13.106 3.291 5.831 6.851 11.643 10.565 17.282 2.935 4.436 8.92 5.648 13.337 2.723 4.436-2.925 5.658-8.901 2.733-13.337-3.474-5.254-6.793-10.681-9.863-16.127-1.771-3.137-5.042-4.888-8.4-4.888-1.597 0-3.214 0.395-4.715 1.241zM750.075 565.459c-2.916 5.533-6.072 11.046-9.382 16.387-2.8 4.522-1.405 10.45 3.118 13.25 4.513 2.8 10.44 1.405 13.24-3.108 3.551-5.725 6.928-11.633 10.046-17.57 2.483-4.696 0.674-10.517-4.022-12.99-1.434-0.751-2.964-1.107-4.474-1.107-3.464 0-6.803 1.857-8.525 5.138zM242.228 514.047c-5.081 1.578-7.919 6.976-6.341 12.047 1.992 6.408 4.253 12.836 6.707 19.12 1.934 4.946 7.505 7.38 12.471 5.465 4.936-1.944 7.39-7.525 5.456-12.471-2.29-5.85-4.388-11.855-6.245-17.83-1.289-4.128-5.090-6.765-9.199-6.765-0.933 0-1.905 0.135-2.848 0.433zM771.004 512.902c-1.694 6.043-3.618 12.095-5.735 18.003-1.79 5.004 0.818 10.517 5.822 12.297 5.032 1.79 10.508-0.818 12.297-5.812 2.261-6.331 4.33-12.827 6.149-19.293 1.434-5.119-1.559-10.431-6.678-11.864-0.866-0.241-1.742-0.366-2.598-0.366-4.205 0-8.064 2.781-9.257 7.034zM232.769 456.13c-5.292 0.481-9.199 5.158-8.718 10.45 0.606 6.745 1.463 13.519 2.54 20.111 0.847 5.235 5.716 8.833 11.046 7.948 5.244-0.856 8.804-5.802 7.948-11.046-1.001-6.139-1.799-12.451-2.367-18.744-0.452-4.994-4.648-8.756-9.574-8.756-0.289 0-0.587 0.010-0.876 0.038zM780.415 457.131c-0.375 6.168-0.981 12.49-1.819 18.792-0.702 5.263 2.993 10.103 8.266 10.806 5.283 0.693 10.113-3.002 10.806-8.275 0.905-6.745 1.559-13.539 1.953-20.168 0.327-5.302-3.714-9.853-9.016-10.18-0.202-0.010-0.395-0.019-0.597-0.019-5.042 0-9.286 3.945-9.593 9.045zM224.859 405.959c-0.779 6.62-1.347 13.414-1.665 20.168-0.25 5.312 3.849 9.815 9.16 10.075 5.177 0.087 9.815-3.859 10.065-9.16 0.298-6.312 0.818-12.644 1.549-18.831 0.625-5.273-3.147-10.055-8.429-10.681-0.385-0.038-0.76-0.067-1.135-0.067-4.811 0-8.968 3.599-9.545 8.497zM786.207 389.621c-5.263 0.77-8.901 5.658-8.131 10.921 0.914 6.206 1.607 12.519 2.088 18.773 0.404 5.302 4.898 9.314 10.325 8.872 5.302-0.404 9.266-5.023 8.862-10.325-0.51-6.697-1.261-13.471-2.232-20.12-0.702-4.782-4.811-8.217-9.516-8.217-0.462 0-0.924 0.029-1.395 0.096zM238.263 346.82c-2.165 6.36-4.128 12.875-5.85 19.379-1.357 5.138 1.713 10.402 6.851 11.758 5.061 1.338 10.402-1.703 11.758-6.841 1.607-6.062 3.435-12.153 5.456-18.080 1.722-5.032-0.972-10.508-6.004-12.22-1.020-0.346-2.078-0.52-3.098-0.52-4.003 0-7.746 2.521-9.112 6.524zM769.599 333.368c-4.965 1.867-7.486 7.419-5.629 12.394 2.194 5.841 4.205 11.864 5.985 17.898 1.501 5.090 6.851 8.015 11.951 6.505 5.1-1.491 8.015-6.851 6.505-11.941-1.905-6.485-4.070-12.952-6.418-19.216-1.443-3.868-5.119-6.255-9.007-6.255-1.126 0-2.271 0.202-3.387 0.616zM263.801 291.829c-3.454 5.754-6.745 11.701-9.796 17.695-2.406 4.734-0.51 10.527 4.224 12.942 4.734 2.406 10.517 0.52 12.932-4.224 2.839-5.591 5.927-11.152 9.141-16.522 2.733-4.561 1.261-10.469-3.31-13.202-1.54-0.924-3.252-1.366-4.936-1.366-3.272 0-6.457 1.665-8.256 4.676zM741.569 281.812c-4.474 2.867-5.773 8.824-2.916 13.298 3.377 5.273 6.62 10.748 9.622 16.262 2.531 4.667 8.371 6.399 13.058 3.859 4.657-2.54 6.389-8.391 3.839-13.058-3.223-5.918-6.688-11.787-10.315-17.445-1.828-2.867-4.946-4.436-8.112-4.436-1.771 0-3.57 0.491-5.177 1.52zM300.25 243.39c-4.561 4.898-9.026 10.036-13.269 15.28-3.349 4.138-2.704 10.19 1.424 13.539s10.2 2.685 13.539-1.434c3.964-4.898 8.131-9.699 12.384-14.27 3.628-3.887 3.406-9.978-0.481-13.596-1.847-1.732-4.215-2.579-6.562-2.579-2.569 0-5.148 1.030-7.034 3.060zM703.388 237.261c-3.772 3.733-3.81 9.834-0.067 13.606 4.417 4.484 8.718 9.16 12.788 13.914 3.474 4.032 9.545 4.484 13.567 1.039 4.041-3.454 4.513-9.536 1.049-13.567-4.369-5.090-8.978-10.103-13.731-14.905-1.876-1.905-4.359-2.858-6.841-2.858-2.434 0-4.879 0.924-6.765 2.771zM345.976 203.573c-5.533 3.887-10.979 7.987-16.166 12.201-4.128 3.358-4.753 9.411-1.405 13.539 3.329 4.118 9.411 4.763 13.529 1.405 4.85-3.926 9.921-7.765 15.088-11.383 4.349-3.050 5.408-9.055 2.348-13.404-1.867-2.665-4.84-4.099-7.881-4.099-1.905 0-3.83 0.568-5.514 1.742zM656.835 201.629c-2.925 4.446-1.694 10.411 2.742 13.327 5.235 3.445 10.411 7.13 15.396 10.941 4.243 3.223 10.267 2.425 13.5-1.809 3.223-4.215 2.415-10.257-1.809-13.481-5.35-4.089-10.902-8.035-16.512-11.72-1.626-1.078-3.464-1.588-5.283-1.588-3.127 0-6.197 1.52-8.035 4.33zM399.062 174.157c-6.235 2.646-12.422 5.523-18.379 8.564-4.725 2.415-6.601 8.217-4.186 12.952 2.425 4.725 8.198 6.591 12.942 4.195 5.562-2.839 11.316-5.523 17.128-7.987 4.898-2.078 7.178-7.717 5.109-12.615-1.549-3.666-5.119-5.87-8.862-5.87-1.261 0-2.531 0.241-3.753 0.76zM603.893 176.515c-1.934 4.956 0.51 10.536 5.465 12.461 5.812 2.271 11.643 4.782 17.33 7.477 4.782 2.28 10.527 0.221 12.807-4.58 2.28-4.811 0.221-10.546-4.58-12.817-6.091-2.887-12.336-5.581-18.571-8.006-1.145-0.443-2.329-0.664-3.493-0.664-3.849 0-7.477 2.329-8.958 6.129zM457.123 156.548c-6.572 1.251-13.211 2.762-19.745 4.484-5.129 1.366-8.198 6.63-6.841 11.768 1.357 5.129 6.649 8.179 11.768 6.841 6.081-1.607 12.288-3.021 18.427-4.195 5.225-1.001 8.641-6.033 7.65-11.249-0.885-4.609-4.917-7.823-9.449-7.823-0.597 0-1.203 0.058-1.809 0.173zM546.804 163.082c-0.847 5.254 2.723 10.19 7.967 11.037 6.178 0.991 12.403 2.223 18.523 3.656 5.215 1.232 10.354-2.001 11.566-7.169 1.212-5.177-2.001-10.354-7.169-11.566-6.572-1.54-13.24-2.858-19.861-3.926-0.51-0.087-1.030-0.125-1.54-0.125-4.638 0-8.727 3.368-9.488 8.092zM497.297 151.766c-5.302 0.26-9.401 4.773-9.151 10.075 0.279 5.312 5.119 9.286 10.075 9.151 6.274-0.308 12.653-0.385 18.927-0.269h0.183c5.235 0 9.526-4.186 9.622-9.43 0.106-5.312-4.118-9.709-9.43-9.815-1.992-0.038-3.984-0.058-5.995-0.058-4.773 0-9.507 0.125-14.231 0.346zM521.474 710.069c-3.079 0.106-6.187 0.164-9.295 0.164-5.321 0-9.622 4.311-9.622 9.622s4.301 9.622 9.622 9.622c3.339 0 6.639-0.058 9.949-0.164 5.312-0.183 9.478-4.638 9.286-9.949-0.173-5.196-4.446-9.295-9.603-9.295h-0.337zM518.4 233.6c-114.875 0-208 93.125-208 208s93.125 208 208 208c114.875 0 208-93.125 208-208s-93.125-208-208-208zM518.4 252.8c104.271 0 188.8 84.529 188.8 188.8s-84.529 188.8-188.8 188.8c-104.271 0-188.8-84.529-188.8-188.8s84.529-188.8 188.8-188.8z" />
<glyph unicode="&#xe91b;" d="M354.731 719.017c3.524 4.198 8.501 6.782 13.846 7.321 5.413 0.546 10.834-1.072 15.070-4.626 8.669-7.269 9.617-20.267 2.334-28.944l-13.627-16.274 14.137-44.495c2.997-9.429-2.36-19.671-12.054-21.977-4.579-1.089-9.382-0.165-13.17 2.405-2.622 1.779-4.427 3.812-6.65 6.991l-13.689 19.555-5.297-6.328 1.042-16.62c0.324-5.020-2.816-9.615-7.648-11.15l-5.461-1.706c-3.554-1.126-7.437-0.367-10.334 2.041l-32.131 26.955c-2.846 2.41-4.269 6.103-3.783 9.753l0.74 5.8c0.668 4.986 4.648 8.875 9.632 9.426l16.528 1.858 5.308 6.308-21.585 10.046c-3.425 1.594-5.843 3.105-8.048 5.375-3.191 3.285-4.977 7.842-4.698 12.549 0.435 7.349 5.646 13.337 12.62 15.232 2.253 0.612 4.625 0.772 6.979 0.457l46.245-6.232 13.694 16.279zM370.632 626.959l-15.521 48.852c-0.862 2.713-0.277 5.678 1.55 7.861l16.568 19.786c1.447 1.724 1.266 4.211-0.276 5.504-0.758 0.636-1.71 0.92-2.708 0.819-1.075-0.108-2.063-0.622-2.776-1.471l-16.644-19.785c-1.834-2.18-4.655-3.27-7.478-2.89l-50.772 6.842c-0.143 0.019-0.281 0.010-0.401-0.023-0.186-0.051-0.288-0.111-0.336-0.141 0.507-0.516 1.389-1.065 3.121-1.871l31.437-14.632c4.966-2.311 6.382-8.709 2.855-12.9l-14.442-17.163c-1.372-1.631-3.318-2.673-5.437-2.911l-13.321-1.498 23.601-19.799-0.839 13.378c-0.133 2.128 0.555 4.226 1.924 5.861l14.398 17.2c3.514 4.198 10.056 3.916 13.196-0.569l19.919-28.454c1.151-1.646 1.797-2.376 2.348-2.754 0.015 0.013 0.173 0.315 0.033 0.755z" />
<glyph unicode="&#xe91c;" glyph-name="ISP_Icon_Dashboard_Ferie" d="M485.312 205.769l-81.171 166.425-226.004-110.23c-5.108-2.49-11.271-0.326-13.776 4.81-15.747 32.287-23.745 62.818-26.29 100.326-2.841 41.874 11.328 107.137 34.622 148.463 25.306 44.894 62.918 81.85 109.477 106.707l-8.135 16.678c-2.533 4.829-0.924 10.798 3.707 13.626 2.531 1.549 5.61 1.918 8.445 1.015 2.824-0.9 5.132-2.973 6.294-5.588l8.157-16.724c81.964 36.326 172.671 29.309 245.054-11.685 4.904 57.327 52.991 102.327 111.588 102.327 61.856 0 112-50.144 112-112s-50.144-112-112-112c-1.42 0-2.477-0.051-3.325-0.119-0.777-2.69-2.635-5.049-5.342-6.37l-226.004-110.23 84.937-174.147c0.158-0.323 0.308-0.644 0.452-0.962 5.817 0.050 11.631 0.075 17.442 0.075 127.131 0 252.847-12.037 377.139-36.111 53.919 76.813 85.581 170.469 85.581 271.543 0 260.864-210.906 472.32-471.040 472.32s-471.040-211.456-471.040-472.32c0-101.665 32.033-195.825 86.53-272.89 118.737 22.394 236.306 34.748 352.702 37.059zM647.449 516.563c3.074-0.103 5.147 0.557 9.831 0.557 51.252 0 92.8 41.548 92.8 92.8s-41.548 92.8-92.8 92.8c-51.252 0-92.8-41.548-92.8-92.8l4.162-4.909c31.849-22.588 59.042-52.391 78.807-88.448zM889.088 151.785c-119.881 22.602-241.094 33.903-363.648 33.903-125.001 0-251.406-11.757-379.22-35.274 86.231-110.278 220.317-181.134 370.9-181.134 151.205 0 285.778 71.443 371.968 182.505zM517.12-51.2c-271.462 0-491.52 220.634-491.52 492.8s220.058 492.8 491.52 492.8c271.462 0 491.52-220.634 491.52-492.8s-220.058-492.8-491.52-492.8zM650.88 793.6c6.316 0 10.88-3.793 10.88-7.633v-32.093c0-3.841-4.564-7.633-10.88-7.633s-10.88 3.793-10.88 7.633v32.093c0 3.841 4.564 7.633 10.88 7.633zM775.255 743.623c4.343 4.342 11.383 4.342 15.728 0 4.342-4.343 4.342-11.385 0-15.728l-21.278-21.28c-2.115-2.114-4.93-3.255-7.864-3.255-2.936 0-5.747 1.14-7.864 3.257-4.343 4.342-4.343 11.383 0 15.727l21.278 21.28zM833.326 614.4c3.841 0 7.634-4.565 7.634-10.88s-3.792-10.88-7.634-10.88h-32.092c-3.841 0-7.634 4.565-7.634 10.88s3.792 10.88 7.634 10.88h32.092zM769.706 500.422l21.277-21.277c4.343-4.343 4.343-11.385 0-15.728-2.116-2.117-4.929-3.257-7.864-3.257-2.933 0-5.747 1.141-7.865 3.258l-21.277 21.279c-4.343 4.342-4.343 11.383 0 15.726s11.382 4.343 15.729-0.001zM650.88 473.6c6.316 0 10.88-3.793 10.88-7.633v-32.093c0-3.841-4.564-7.633-10.88-7.633s-10.88 3.793-10.88 7.633v32.093c0 3.841 4.564 7.633 10.88 7.633zM526.504 743.622l21.28-21.279c4.341-4.341 4.341-11.383 0-15.727-2.115-2.116-4.93-3.256-7.864-3.256s-5.748 1.14-7.865 3.256l-21.278 21.279c-4.343 4.343-4.343 11.385 0 15.728s11.382 4.343 15.727 0zM265.321 479.598c-7.080 39.711-4.778 77.279 8.349 113.794-34.785-22.403-63.152-52.555-83.148-87.945-20.563-36.394-34.814-101.511-31.618-141.785 2.676-33.726 6.566-48.037 20.070-78.231l133.435 65.080c-26.254 54.087-40.176 90.321-47.087 129.088zM328.728 619.991c36.895-12.16 67.918-33.402 94.712-63.274 26.293-29.313 46.275-62.592 72.733-116.579l133.421 65.074c-57.77 106.697-185.513 154.914-300.866 114.779zM285.706 483.108c6.476-36.326 20.106-71.931 45.17-123.59l146.829 71.613c-25.277 51.556-44.943 84.217-69.581 111.685-29.538 32.93-63.658 53.845-106.52 63.048-19.137-39.441-23.662-79.205-15.898-122.755z" />
<glyph unicode="&#xe91d;" glyph-name="ISP_Icon_Down" d="M479.597 215.702l-169.575 169.575c-8.346 8.346-21.877 8.346-30.222 0s-8.346-21.877 0-30.222l206.057-206.057c8.346-8.346 21.877-8.346 30.222 0l206.057 206.057c8.346 8.346 8.346 21.877 0 30.222s-21.877 8.346-30.222 0l-169.575-169.575v531.484c0 11.803-9.568 21.37-21.37 21.37s-21.37-9.568-21.37-21.37v-531.484zM500.967-43.52c-271.459 0-491.52 220.061-491.52 491.52s220.061 491.52 491.52 491.52c271.459 0 491.52-220.061 491.52-491.52s-220.061-491.52-491.52-491.52z" />
<glyph unicode="&#xe91e;" d="M0 62.4l704 721.6 222.4-856-926.4 134.4zM668.8 657.6l-536-550.4 705.6-102.4-169.6 652.8z" />
<glyph unicode="&#xe91f;" d="M647.706 324.512c29.775 32.677 47.985 76.055 47.985 123.488 0 101.049-82.642 183.691-183.691 183.691s-183.691-82.642-183.691-183.691c0-47.432 18.209-90.809 47.983-123.486 19.176 31.518 48.686 55.287 83.221 67.376-22.793 16.355-37.642 43.082-37.642 73.277 0 49.777 40.352 90.129 90.129 90.129s90.129-40.352 90.129-90.129c0-30.195-14.848-56.921-37.641-73.277 34.517-12.082 64.029-35.839 83.219-67.378zM628.529 306.261c-23.125 41.889-67.381 68.777-116.529 68.777-49.183 0-93.432-26.929-116.53-68.776 31.762-26.184 72.39-41.953 116.53-41.953s84.767 15.769 116.529 41.952zM203.251 464.259c8.246 157.166 135.324 284.244 292.49 292.49l3.254 0.171v84.404c0 3.824 4.638 6.676 13.005 6.676s13.005-2.852 13.005-6.676v-84.404l3.254-0.171c157.166-8.246 284.244-135.325 292.49-292.49l0.171-3.254h83.561c4.417 0 7.519-4.656 7.519-13.005s-3.102-13.005-7.519-13.005h-83.561l-0.171-3.254c-8.246-157.166-135.324-284.244-292.49-292.49l-3.254-0.171v-83.561c0-4.417-4.656-7.519-13.005-7.519s-13.005 3.102-13.005 7.519v83.561l-3.254 0.171c-157.166 8.246-284.244 135.325-292.49 292.49l-0.171 3.254h-84.404c-3.824 0-6.676 4.638-6.676 13.005s2.852 13.005 6.676 13.005h84.404l0.171 3.254zM229.322 431.36c8.365-142.584 123.454-257.673 266.038-266.038l3.635-0.213v72.107l-3.171 0.243c-103.298 7.923-186.442 91.067-194.365 194.365l-0.243 3.171h-72.107l0.213-3.635zM229.109 461.005h72.107l0.243 3.171c7.923 103.298 91.067 186.442 194.365 194.365l3.171 0.243v72.107l-3.635-0.213c-142.584-8.365-257.673-123.454-266.038-266.038l-0.213-3.635zM794.891 434.995h-72.107l-0.243-3.171c-7.923-103.298-91.067-186.442-194.365-194.365l-3.171-0.243v-72.107l3.635 0.213c142.584 8.365 257.673 123.454 266.038 266.038l0.213 3.635zM794.678 464.64c-8.365 142.584-123.454 257.673-266.038 266.038l-3.635 0.213v-72.107l3.171-0.243c103.298-7.923 186.442-91.067 194.365-194.365l0.243-3.171h72.107l-0.213 3.635zM512 400.79c35.555 0 64.378 28.823 64.378 64.378s-28.823 64.378-64.378 64.378c-35.555 0-64.378-28.823-64.378-64.378s28.823-64.378 64.378-64.378z" />
<glyph unicode="&#xe920;" d="M665.848 345.435l-66.171 527.716-471.47-248.142 537.641-279.573zM652.614 977.37l94.294-747.735-764.278 397.027 669.984 350.708z" />
<glyph unicode="&#xe921;" d="M360.327 152.713c37.633-34.906 88.024-56.248 143.401-56.248 60.527 0 115.1 25.496 153.565 66.333-35.911 36.246-87.813 57.739-143.854 57.739-61.202 0-117.355-25.653-153.112-67.823zM343.076 170.71c26.923 30.937 63.429 53.692 104.676 65.494-32.070 19.488-53.529 55.21-53.529 95.996 0 61.61 48.966 111.664 109.506 111.664s109.506-50.054 109.506-111.664c0-38.429-19.051-72.362-48.079-92.457 41.618-9.184 79.206-29.311 108.122-57.842 25.996 35.067 41.371 78.48 41.371 125.484 0 116.488-94.433 210.921-210.921 210.921s-210.921-94.433-210.921-210.921c0-52.141 18.92-99.863 50.268-136.676zM269.529 334.439c6.118 53.544 30.174 101.639 66.010 138.124l-74.89 74.89-2.119 0.185c-14.99-10.492-30.783-15.757-48.679-15.757-44.336 0-80.087 35.751-80.087 80.087 0 43.206 35.968 75.708 81.547 75.708 44.336 0 80.087-35.751 80.087-80.087 0-15.731-4.284-30.009-12.859-42.872l0.207-2.087 74.108-74.108c38.724 32.289 87.962 52.395 141.827 54.429v106.969l-1.342 1.624c-37.281 7.169-64.343 40.15-64.343 78.657 0 44.336 35.751 80.087 80.087 80.087s80.087-35.751 80.087-80.087c0-39.502-29.495-72.844-68.652-78.645l-1.412-1.637v-107.291c51.513-3.317 98.522-23.179 135.766-54.328l80.169 80.169 0.276 1.973c-7.433 13.38-11.469 27.689-11.469 41.527 0 44.336 35.751 80.087 80.087 80.087s80.087-35.751 80.087-80.087c0-44.336-35.751-80.087-80.087-80.087-18.787 0-35.891 5.822-50.054 17.154l-2.203-0.122-77.362-77.362v-1.462c35.791-37.514 59.334-86.816 64.21-141.49h107.74l1.638 1.421c5.723 40.058 40.059 70.103 80.103 70.103 44.047 0 78.627-35.455 78.627-80.087 0-44.336-35.751-80.087-80.087-80.087-37.741 0-69.873 26.29-78.672 62.957l-1.609 1.269h-106.82c-1.718-128.712-106.593-232.524-235.713-232.524-130.193 0-235.735 105.542-235.735 235.735 0 0.877 0.005 1.753 0.014 2.627h-88.81l-1.638-1.421c-5.723-40.058-40.059-70.103-80.103-70.103-44.336 0-80.087 35.751-80.087 80.087s35.751 80.087 80.087 80.087c37.741 0 69.873-26.29 78.672-62.957l1.609-1.269h91.791zM805.392 669.089c-30.107 0-54.203-24.096-54.203-54.203s24.096-54.203 54.203-54.203c30.107 0 54.203 24.096 54.203 54.203s-24.096 54.203-54.203 54.203zM209.851 556.307c30.107 0 54.203 24.096 54.203 54.203s-24.096 54.203-54.203 54.203c-30.107 0-54.203-24.096-54.203-54.203s24.096-54.203 54.203-54.203zM97.457 264.375c30.107 0 54.203 24.096 54.203 54.203s-24.096 54.203-54.203 54.203c-30.107 0-54.203-24.096-54.203-54.203s24.096-54.203 54.203-54.203zM454.879 733.12c0-30.107 24.096-54.203 54.203-54.203s54.203 24.096 54.203 54.203c0 30.107-24.096 54.203-54.203 54.203s-54.203-24.096-54.203-54.203zM928.003 265.835c30.107 0 54.203 24.096 54.203 54.203s-24.096 54.203-54.203 54.203c-30.107 0-54.203-24.096-54.203-54.203s24.096-54.203 54.203-54.203zM503.729 245.351c46.713 0 84.692 38.824 84.692 86.85s-37.979 86.85-84.692 86.85c-46.713 0-84.692-38.824-84.692-86.85s37.979-86.85 84.692-86.85z" />
<glyph unicode="&#xe922;" d="M648 960l91.2-723.2-739.2 384 648 339.2zM660.8 348.8l-64 510.4-456-240 520-270.4z" />
<glyph unicode="&#xe923;" d="M787.318 752.8c16.18 0 28.275-10.385 29.482-24.936v-559.728c0-14.173-12.892-24.936-29.482-24.936h-534.636c-16.59 0-29.482 10.763-29.482 24.936v559.728c0 14.173 12.892 24.936 29.482 24.936h534.636zM252.682 729.363c-2.324 0-4.159-1.050-4.936-1.499l-0.8-84.251 545.309-0.8 0.442 85.485c-0.245 0.123-0.737 0.32-1.439 0.521-1.186 0.34-2.511 0.544-3.939 0.544h-534.636zM787.318 167.787c2.84 0 3.861 0.681 4.936 2.648l0.8 448.591-545.309 0.8-0.8-450.89c0.582 0 1.156-0.192 2.261-0.616 1.051-0.351 2.084-0.533 3.475-0.533h534.636zM499.349 587.295c6.956 0 12.273-5.707 12.273-12.293v-202.284c0-7.338-4.947-12.293-12.273-12.293h-199.628c-7.326 0-12.273 4.956-12.273 12.293v202.284c0 7.338 4.947 12.293 12.273 12.293h199.628zM487.876 562.709l-175.882 0.8-0.8-178.497h175.886l0.796 177.697zM746.016 435.583c6.179 0 12.273-6.105 12.273-12.293v-202.284c0-7.338-4.947-12.293-12.273-12.293h-199.628c-7.326 0-12.273 4.956-12.273 12.293v202.284c0 7.338 4.947 12.293 12.273 12.293h199.628zM734.543 410.996l-175.882 0.8-0.8-178.497h175.886l0.796 177.697zM499.349 339.038c6.956 0 12.273-5.707 12.273-12.293v-101.142c0-7.338-4.947-12.293-12.273-12.293h-199.628c-7.326 0-12.273 4.956-12.273 12.293v101.142c0 7.338 4.947 12.293 12.273 12.293h199.628zM487.876 314.451l-175.882 0.8-0.8-77.355h175.89l0.792 76.555zM746.016 580.399c6.576 0 12.273-5.326 12.273-12.293v-101.142c0-7.338-4.947-12.293-12.273-12.293h-199.628c-7.326 0-12.273 4.956-12.273 12.293v101.142c0 7.338 4.947 12.293 12.273 12.293h199.628zM734.543 555.812l-175.882 0.8-0.8-77.355h175.89l0.792 76.555zM594.921 689.936c0 9.636 8.389 18.040 18.009 18.040s18.009-8.404 18.009-18.040c0-9.636-8.389-18.040-18.009-18.040s-18.009 8.404-18.009 18.040zM655.727 689.936c0 9.636 8.389 18.040 18.009 18.040s18.009-8.404 18.009-18.040c0-9.636-8.389-18.040-18.009-18.040s-18.009 8.404-18.009 18.040zM716.533 689.936c0 9.636 8.389 18.040 18.009 18.040s18.009-8.404 18.009-18.040c0-9.636-8.389-18.040-18.009-18.040-10.385 0-18.009 8.001-18.009 18.040z" />
<glyph unicode="&#xe924;" d="M111.011 845.507l167.237-555.072 399.35 359.42-566.587 195.652zM242.205 160l-242.205 800 816-282.609-573.795-517.391z" />
<glyph unicode="&#xe925;" d="M681.766 559.805h-323.624l-1.6 1.6v161.973l1.6 1.6h323.624l1.6-1.6v-161.973l-1.6-1.6zM677.928 532.109l-144.33-310.483-1.444-3.823-1.419 3.745-165.506 310.483 1.412 2.353h309.837l1.451-2.274zM811.277 567.072l0.219-0.439 0.628-2.213v-4.749l-1.6-1.6h-99.622l-1.6 1.6v146.029l2.905 0.926 99.070-139.556zM833.134 531.727l-287.901-327.651 161.582 328.325 3.629 1.982h121.487l1.202-2.656zM193.472 534.383l138.561-0.217 3.295-2.189 176.672-327.901-6.444 6.147-313.23 321.443 1.146 2.717zM212.722 562.371l116.772 154.203 2.876-0.966v-154.203l-1.6-1.6h-116.772l-1.276 2.566zM327.7 750.4c-3.492 0-7.444-2.51-10.36-6.798l-153.474-204.487c-3.487-4.568-2.922-10.828 1.389-16.531 34.28-34.942 86.738-88.313 154.255-156.956l0.249-0.253c56.099-57.035 197.767-201 197.694-200.968 5.617-4.138 13.55-3.665 18.413 1.1l322.973 358.871c4.2 4.126 4.769 10.231 1.203 14.91l-142.307 205.523c-3.541 3.478-7.643 5.589-10.818 5.589h-379.217z" />
<glyph unicode="&#xe926;" d="M96 238.4l704 721.6 222.4-856-926.4 134.4zM764.8 833.6l-536-550.4 705.6-102.4-169.6 652.8z" />
<glyph unicode="&#xe927;" d="M202.936 632.981c-0.231-0.066-0.257-0.072-0.549-0.148-0.731-0.187-1.121-0.29-1.556-0.416-0.042-0.012-0.042-0.012-0.531-0.122-0.589-0.084-1.909-0.429-3.387-0.907-4.206-1.21-8.332-3.132-12.154-5.673-0.332-0.216-0.332-0.216-0.433-0.282l-0.151-0.102-0.133-0.096-0.143-0.109c-0.145-0.113-0.145-0.113-0.708-0.556-0.708-0.532-1.532-1.235-2.513-2.151-1.82-1.578-3.62-3.432-5.256-5.418l-0.245-0.296-0.154-0.184-0.151-0.178-0.281-0.328c-0.745-0.866-1.042-1.236-1.28-1.576l-0.97-1.487c-2.49-3.956-4.357-8.21-5.648-12.919-0.381-1.223-0.732-2.655-1.343-5.383 0.005 0.014-0.147-1.14-0.458-3.684 0.129 0.259-0.018-1.798-0.102-2.599 0.037 0.171 0.006-0.621 0.012-1.104v-425.014c0.021-7.439 5.857-13.425 13.006-13.446h668.349c7.177 0.021 13.021 5.999 13.042 13.413v425.112c0.010 0.729-0.029 1.419-0.161 2.812-0.013 0.834-0.078 1.648-0.33 4.989-0.060-0.663-0.418 0.918-0.611 1.704-0.099 0.703-0.435 2.068-0.904 3.597-1.186 4.347-3.060 8.596-5.531 12.523-0.21 0.34-0.21 0.34-0.276 0.445l-0.101 0.159-0.099 0.145-0.108 0.15c-0.11 0.149-0.11 0.149-0.541 0.727-0.518 0.728-1.201 1.575-2.086 2.576-1.541 1.875-3.346 3.724-5.282 5.407l-0.2 0.175-0.084 0.074-0.179 0.158-0.174 0.156-0.086 0.078-0.371 0.337-0.258 0.233c-0.275 0.242-0.275 0.242-0.367 0.323l-0.174 0.152-0.177 0.143-0.087 0.070-0.147 0.116c-0.11 0.087-0.11 0.087-0.171 0.145l-1.464 1.006c-3.841 2.555-7.973 4.467-12.564 5.796-1.166 0.383-2.554 0.745-5.34 1.414 0.105-0.042-1.009 0.117-2.69 0.309-0.045-0.002-0.084-0.001-0.141 0.001-0.321 0.007-0.321 0.007-0.647 0.025-0.744 0.048-0.744 0.048-1.615 0.112l-0.037 0.003c-0.278 0.020-0.278 0.020-1.097 0.128 0.31-0.086-0.587-0.058-0.824-0.061l-187.448 0.465-2.455 1.157-3.132 3.777-0.737 2.043v28.192c0.016 12.244-4.713 23.991-13.133 32.642-8.415 8.646-19.824 13.49-31.719 13.473h-127.31c-11.881 0.016-23.289-4.829-31.703-13.474-8.421-8.652-13.149-20.4-13.134-32.709l-0.472-29.312-1.17-2.422-3.788-3.107-2.030-0.726-186.513 0.001c-0.638 0.010-1.408-0.037-3.51-0.2-0.047 0.003-0.855-0.063-3.081-0.27zM437 633.45l-1.22 0.242-2.371 1.381-3.132 3.777-0.737 2.043v28.2c0.035 10.6 8.408 19.226 18.82 19.257h127.315c10.39-0.031 18.755-8.672 18.784-19.339l-0.472-29.305-1.17-2.422-3.788-3.107-2.030-0.726h-150zM833.159 489.224c-0.016-46.733-36.902-84.656-82.47-84.673l-179.562 0.465-2.455 1.157-3.132 3.777-0.737 2.043v11.811c-0.072 25.478-20.129 46.072-44.832 46.147h-15.905c-24.73-0.074-44.796-20.658-44.871-46.229l-0.472-12.98-1.168-2.358-3.788-3.107-2.030-0.726h-178.439c-45.556 0.017-82.441 37.941-82.457 84.675v94.023c0 12.359 10.010 22.383 22.369 22.4l597.518 0.817c12.371 0.017 22.414-9.998 22.431-22.374v-94.868zM485.236 358.417v65.426c0.035 10.6 8.408 19.226 18.82 19.257h15.922c10.39-0.031 18.755-8.672 18.785-19.287v-65.408c-0.030-10.594-8.408-19.223-18.821-19.253h-15.922c-10.387 0.031-18.755 8.669-18.784 19.266zM820.779 404.183l4.418 3.866 3.43 0.506 2.654-1.204 1.878-2.921-0.472-222.479-1.17-2.467-3.788-3.107-2.032-0.726-628.525 0.465-2.461 1.157-3.132 3.777-0.737 2.043v221.344l1.878 2.914 2.654 1.204 3.43-0.506 4.418-3.866c19.552-17.109 44.401-26.499 70.092-26.484l179.561-0.465 2.455-1.157 3.132-3.777 0.737-2.043v-11.811c0.073-25.478 20.129-46.072 44.832-46.147h15.905c24.73 0.074 44.796 20.659 44.871 46.229l0.472 12.98 1.168 2.358 3.788 3.107 2.030 0.726h178.44c25.677-0.015 50.525 9.375 70.076 26.484z" />
<glyph unicode="&#xe928;" d="M648 960l91.2-723.2-739.2 384 648 339.2zM660.8 348.8l-64 510.4-456-240 520-270.4z" />
<glyph unicode="&#xe929;" d="M800.217 800c17.798 0 30.512-11.705 31.783-27.312v-633.376c0-15.607-13.984-27.312-31.783-27.312h-592.434c-17.798 0-31.783 11.705-31.783 27.312v633.376c0 15.607 13.984 27.312 31.783 27.312h592.434zM800.217 138.011c3.814 0 5.085 1.301 6.357 3.902v632.076c0 0-2.543 1.301-6.357 1.301h-592.434c-3.814 0-6.357-2.601-6.357-2.601v-633.376c1.271 0 2.543-1.301 6.357-1.301h592.434zM565.076 494.977h155.732c19.309 0 34.961-16.013 34.961-35.766s-15.653-35.766-34.961-35.766h-151.527c-10.991-19.437-31.534-32.514-55.062-32.514s-44.071 13.077-55.062 32.514h-164.24c-19.309 0-34.961 16.013-34.961 35.766s15.653 35.766 34.961 35.766h168.445c11.597 15.795 30.061 26.011 50.857 26.011s39.26-10.217 50.857-26.011zM577.471 449.457h143.337c5.266 0 9.535 4.367 9.535 9.754s-4.269 9.754-9.535 9.754h-144.295c0.834-4.202 1.272-8.552 1.272-13.006 0-2.195-0.106-4.364-0.314-6.503zM451.925 468.966h-157.008c-5.266 0-9.535-4.367-9.535-9.754s4.269-9.754 9.535-9.754h156.050c-0.208 2.139-0.314 4.308-0.314 6.503 0 4.454 0.438 8.803 1.272 13.006zM514.219 416.943c21.064 0 38.14 17.469 38.14 39.017s-17.076 39.017-38.14 39.017c-21.064 0-38.14-17.469-38.14-39.017s17.076-39.017 38.14-39.017zM679.495 325.904h41.313c19.309 0 34.961-16.013 34.961-35.766s-15.653-35.766-34.961-35.766h-37.109c-10.991-19.437-31.534-32.514-55.062-32.514s-44.071 13.077-55.062 32.514h-278.659c-19.309 0-34.961 16.013-34.961 35.766s15.653 35.766 34.961 35.766h282.864c11.597 15.795 30.061 26.011 50.857 26.011s39.26-10.217 50.857-26.011zM691.89 280.384h28.919c5.266 0 9.535 4.367 9.535 9.754s-4.269 9.754-9.535 9.754h-29.876c0.834-4.202 1.272-8.552 1.272-13.006 0-2.195-0.106-4.364-0.314-6.503zM566.343 299.892h-271.427c-5.266 0-9.535-4.367-9.535-9.754s4.269-9.754 9.535-9.754h270.469c-0.208 2.139-0.314 4.308-0.314 6.503 0 4.454 0.438 8.803 1.272 13.006zM628.638 247.87c21.064 0 38.14 17.469 38.14 39.017s-17.076 39.017-38.14 39.017c-21.064 0-38.14-17.469-38.14-39.017s17.076-39.017 38.14-39.017zM336.23 664.051c11.597 15.795 30.061 26.011 50.857 26.011s39.26-10.217 50.857-26.011h282.864c19.309 0 34.961-16.013 34.961-35.766s-15.653-35.766-34.961-35.766h-278.659c-10.991-19.437-31.534-32.514-55.062-32.514s-44.071 13.077-55.062 32.514h-37.109c-19.309 0-34.961 16.013-34.961 35.766s15.653 35.766 34.961 35.766h41.313zM323.835 618.531c-0.208 2.139-0.314 4.308-0.314 6.503 0 4.454 0.438 8.803 1.272 13.006h-29.876c-5.266 0-9.535-4.367-9.535-9.754s4.269-9.754 9.535-9.754h28.919zM449.382 638.040c0.834-4.202 1.272-8.552 1.272-13.006 0-2.195-0.106-4.364-0.314-6.503h270.469c5.266 0 9.535 4.367 9.535 9.754s-4.269 9.754-9.535 9.754h-271.427zM387.087 586.017c21.064 0 38.14 17.469 38.14 39.017s-17.076 39.017-38.14 39.017c-21.064 0-38.14-17.469-38.14-39.017s17.076-39.017 38.14-39.017z" />
<glyph unicode="&#xe92a;" d="M1018.477-60.8l-858.477 404.8 686.466 504 172.011-908.8zM298.871 356.8l623.342-294.4-124.668 659.2-498.674-364.8z" />
<glyph unicode="&#xe92b;" d="M512 443.535c-10.915 0-20.465 8.186-20.465 20.465s8.186 20.465 20.465 20.465c12.279 0 20.465-8.186 20.465-20.465s-9.55-20.465-20.465-20.465zM618.419 649.55c-6.822 4.093-13.643 1.364-17.736-4.093l-81.86-136.434c-2.729 0-4.093 1.364-6.822 1.364-24.558 0-45.023-20.465-45.023-45.023s20.465-45.023 45.023-45.023c24.558 0 45.023 20.465 45.023 45.023 0 13.643-6.822 25.922-16.372 34.109l81.86 132.341c2.729 5.457 1.364 13.643-4.093 17.736zM682.543 260.713c5.457-5.457 4.093-12.279-1.364-17.736-8.186-6.822-17.736-15.008-27.287-21.829-2.729-1.364-5.457-2.729-6.822-2.729-4.093 0-6.822 2.729-9.55 5.457-4.093 6.822-2.729 13.643 4.093 17.736 8.186 6.822 17.736 12.279 24.558 19.101 4.093 5.457 12.279 5.457 16.372 0zM787.597 421.705c-8.186-58.667-36.837-111.876-79.132-154.171-2.729-2.729-6.822-4.093-8.186-4.093-4.093 0-6.822 1.364-8.186 4.093-5.457 5.457-5.457 12.279 0 17.736 38.202 38.202 62.76 87.318 70.946 140.527 1.364 6.822 6.822 10.915 13.643 9.55s10.915-8.186 10.915-13.643zM512 716.403c-139.163 0-252.403-113.24-252.403-252.403 0-6.822-5.457-12.279-12.279-12.279s-12.279 5.457-12.279 12.279c0 152.806 125.519 276.961 276.961 276.961s278.326-125.519 278.326-278.326c0-6.822-5.457-12.279-12.279-12.279s-12.279 5.457-12.279 12.279c0 140.527-113.24 253.767-253.767 253.767zM512 135.194c-180.093 0-327.442 147.349-327.442 328.806s147.349 327.442 327.442 327.442c180.093 0 327.442-147.349 327.442-327.442s-145.984-328.806-327.442-328.806zM512 816c-193.736 0-352-158.264-352-352s158.264-352 352-352c195.101 0 352 158.264 352 352s-156.899 352-352 352z" />
<glyph unicode="&#xe92c;" d="M792 25.6l-792 624 828.8 310.4-36.8-934.4zM131.2 627.2l603.2-475.2 28.8 712-632-236.8z" />
<glyph unicode="&#xe92d;" d="M539.002 764.8c-7.471 0-12.172-4.602-12.172-11.85s4.701-11.85 12.172-11.85c152.296 0 279.92-136.465 279.92-292.15 0-154.297-126.397-284.804-279.92-284.804-151.608 0-282.978 143.341-282.978 299.853v17.561l60.779-52.898c4.516-4.421 11.71-3.717 17.044 1.505 4.472 4.378 3.764 11.306-1.417 16.384l-78.52 69.34c-2.306 2.257-5.522 3.202-8.522 2.097-3.555 0-5.874-1.009-8.407-3.483l-70.828-76.871c-4.472-4.378-3.764-11.306 1.537-16.496 2.648-2.592 4.967-3.601 8.522-3.601 3.923 0 7.139 1.26 8.365 3.436l45.564 51.47v-8.442c0-169.645 142.504-323.552 307.323-323.552 166.847 0 304.264 141.147 304.265 308.532 1.546 169.478-136.448 315.82-302.727 315.82zM429.857 322.725c3.555 0 5.874 1.009 8.403 3.479l109.263 119.014c2.635 2.58 3.65 4.816 3.65 8.248v206.178c0 7.247-4.701 11.85-12.172 11.85s-12.172-4.602-12.172-11.85v-201.663l-0.838-2.159-104.656-114.504c-4.472-4.378-3.764-11.306 1.537-16.496 0.871-0.853 4.682-2.097 6.985-2.097zM658.907 639.889c-9.008 0-15.247-6.107-15.247-14.859s6.238-14.859 15.247-14.859c9.008 0 15.247 6.107 15.247 14.859s-6.238 14.859-15.247 14.859zM714.247 495.414c-9.008 0-15.247-6.107-15.247-14.859s6.238-14.859 15.247-14.859c9.008 0 15.247 6.107 15.247 14.859s-6.238 14.859-15.247 14.859zM658.907 350.939c-9.008 0-15.247-6.107-15.247-14.859s6.238-14.859 15.247-14.859c9.008 0 15.247 6.107 15.247 14.859s-6.238 14.859-15.247 14.859zM539.002 272.681c-9.008 0-15.247-6.107-15.247-14.859s6.238-14.859 15.247-14.859c9.008 0 15.247 6.107 15.247 14.859s-6.238 14.859-15.247 14.859z" />
<glyph unicode="&#xe92e;" d="M1030.4 51.2l-870.4 404.8 696 504 174.4-908.8zM300.8 468.8l632-294.4-126.4 659.2-505.6-364.8z" />
<glyph unicode="&#xe92f;" d="M640.839 367.687c23.379 0 41.258 19.169 41.258 41.076s-19.254 42.445-41.258 42.445c-23.379 0-42.633-19.169-42.633-42.445s19.254-41.076 42.633-41.076zM640.839 425.193c8.252 0 15.128-6.846 15.128-15.061s-6.876-15.061-15.128-15.061c-8.252 0-15.128 6.846-15.128 15.061s6.876 15.061 15.128 15.061zM818.247 622.357h-89.392v99.951c0 6.846-5.501 13.692-13.753 13.692h-468.964c-38.507 0-70.138-31.491-70.138-69.829 0 0 0 0 0 0s0-1.369 0-1.369v-475.11c0-6.846 5.501-13.692 13.753-13.692h628.495c6.876 0 13.753 5.477 13.753 13.692v418.973c-1.375 6.846-6.876 13.692-13.753 13.692zM246.138 708.616h455.212v-87.628h-455.212c-24.755 0-44.008 19.169-44.008 43.814s20.629 43.814 44.008 43.814zM804.495 337.565h-247.547v143.765h247.547v-143.765zM804.495 508.714h-261.3c-6.876 0-13.753-5.477-13.753-13.692v-171.149c0-6.846 5.501-13.692 13.753-13.692h261.3v-109.535h-602.365v409.389c12.377-9.584 27.505-15.061 44.008-15.061h558.356v-86.259z" />
<glyph unicode="&#xe930;" d="M870.4 49.6l-870.4 404.8 696 504 174.4-908.8zM140.8 467.2l632-294.4-126.4 659.2-505.6-364.8z" />
<glyph unicode="&#xe931;" d="M883.125 465.426h-101.621c-6.84 0-11.275-4.447-11.275-11.31s4.435-11.31 11.275-11.31h101.621c6.84 0 11.275 4.447 11.275 11.31s-4.435 11.31-11.275 11.31zM240.751 465.426h-115.876c-6.84 0-11.275-4.447-11.275-11.31s4.435-11.31 11.275-11.31h115.876c6.84 0 11.275 4.447 11.275 11.31s-4.435 11.31-11.275 11.31zM565.517 669.991c5.607-1.125 11.332 2.252 13.597 7.907l25.72 90.245c1.122 5.628-2.247 11.371-7.758 13.61-5.607 1.125-11.332-2.252-13.597-7.907l-25.725-90.281c-1.103-6.852 2.207-12.46 7.763-13.574zM413.078 683.321l-0.053 0.154-25.78 90.496c-1.148 5.756-8.030 9.973-13.566 7.781-5.738-1.151-9.946-8.054-7.788-13.485l25.78-90.496c1.148-5.756 8.030-9.973 13.566-7.781 5.738 1.151 9.946 8.054 7.841 13.33zM816.273 648.098c-3.332 4.455-11.34 5.602-15.812 2.24l-90.095-64.528c-4.445-3.343-5.59-11.379-2.255-15.837 3.332-4.455 11.34-5.602 15.812-2.24l90.11 64.539c4.53 3.42 5.552 10.277 2.241 15.826zM272.652 567.681c5.173-4.15 11.939-2.793 15.773 2.332 4.142 5.191 2.787 11.982-2.256 15.775l-90.195 64.603c-5.173 4.15-11.939 2.793-15.773-2.332-4.138-5.186-2.789-11.97 2.272-15.787l90.179-64.592zM597.078 181.714v85.206l0.925 1.451c71.826 33.438 117.526 101.459 117.526 175.417 0 109.727-96.683 197.214-217.276 197.214-120.099 0-217.276-88.33-217.276-197.214 0-74.783 45.24-141.764 117.526-175.417l0.925-1.451v-85.206c0-37.495 33.668-68.114 74.363-68.114h48.925c40.695 0 74.363 30.619 74.363 68.114zM569.065 216.88l1.6-1.6v-33.566c0-22.984-21.477-41.621-47.95-41.621h-48.925c-26.473 0-47.95 18.637-47.95 41.621v33.566l1.6 1.6h141.626zM485.69 243.682l-1.6-1.6h-56.65l-1.6 1.6v32.275c0 4.385-3.346 9.081-8.037 11.437-67.618 28.685-110.413 88.689-110.413 155.102 0 94.357 84.976 170.721 190.864 170.721 105.043 0 190.864-76.761 190.864-170.721 0-66.88-43.266-127.912-110.649-155.181-4.521-1.133-7.802-5.739-7.802-11.358v-32.275l-1.6-1.6h-56.65l-1.6 1.6 0.73 140.771 83.557 54.127c6.173 4.951 7.92 13.012 3.613 18.41-4.517 5.662-12.591 7.070-18.465 3.537l-79.825-52.931h-1.768l-79.83 52.934c-6.62 4.425-14.735 2.656-18.46-3.541-4.364-5.469-2.434-14.755 3.501-18.328l81.824-55.552v-139.428z" />
<glyph unicode="&#xe932;" d="M923.2 344l-923.2-404.8 115.2 876.8 808-472zM80 43.2l702.4 308.8-616 360-86.4-668.8z" />
<glyph unicode="&#xe933;" d="M739.2 659.2c-59.2 59.2-139.2 92.8-219.2 92.8-84.8 0-161.6-32-219.2-92.8-59.2-57.6-92.8-137.6-92.8-219.2 0-60.8 16-118.4 48-166.4l1.6-3.2-36.8-110.4c-1.6-4.8 0-11.2 3.2-14.4s9.6-4.8 14.4-3.2l110.4 36.8 3.2-1.6c51.2-32 107.2-48 166.4-48 84.8 0 161.6 32 219.2 92.8 57.6 57.6 91.2 137.6 91.2 217.6 1.6 83.2-30.4 163.2-89.6 219.2zM462.4 718.4c0 0 12.8 1.6 22.4 3.2 4.8 1.6 22.4 1.6 22.4 1.6v-113.6h-97.6l4.8 9.6c11.2 30.4 48 99.2 48 99.2zM507.2 587.2v-136h-124.8v8c3.2 48 8 86.4 16 121.6l1.6 4.8h107.2v1.6zM300.8 622.4c30.4 35.2 68.8 62.4 116.8 81.6l22.4 9.6-12.8-19.2c-14.4-24-27.2-52.8-36.8-73.6l-4.8-9.6h-94.4l9.6 11.2zM238.4 459.2c3.2 44.8 14.4 88 36.8 123.2l1.6 3.2h100.8l-3.2-8c-8-40-14.4-78.4-14.4-118.4v-8h-123.2c1.6 0 1.6 8 1.6 8zM238.4 420.8v8h123.2v-6.4c3.2-48 8-84.8 16-118.4l1.6-9.6h-100.8l-1.6 3.2c-24 36.8-36.8 78.4-38.4 123.2zM411.2 179.2c-16 8-32 14.4-52.8 28.8-1.6 1.6-4.8 3.2-8 3.2s-4.8 0-6.4 0c-22.4-6.4-88-30.4-88-30.4l30.4 92.8h97.6l1.6-4.8c6.4-19.2 20.8-49.6 35.2-76.8l11.2-19.2c0-1.6-14.4 3.2-20.8 6.4zM499.2 158.4c-12.8 0-24 1.6-36.8 4.8l-4.8 8c-12.8 19.2-33.6 60.8-44.8 92.8l-3.2 9.6h97.6v-115.2h-8zM403.2 294.4l-1.6 4.8c-11.2 46.4-16 84.8-16 121.6v8h121.6v-134.4h-104zM539.2 721.6c16 0 30.4-3.2 41.6-4.8l6.4-1.6c0 0 27.2-56 40-96l3.2-9.6h-102.4v112h11.2zM635.2 587.2l1.6-4.8c11.2-46.4 16-84.8 16-121.6v-8h-124.8v134.4h107.2zM657.6 427.2v-8c-3.2-48-8-86.4-16-121.6l-1.6-4.8h-112v136h129.6c0 1.6 0-1.6 0-1.6zM584 164.8l-6.4-1.6c-11.2-1.6-25.6-4.8-41.6-4.8h-8v113.6h100.8l-4.8-12.8c-9.6-32-40-94.4-40-94.4zM737.6 259.2c-27.2-32-64-59.2-108.8-80l-17.6-8 8 17.6c12.8 28.8 25.6 57.6 33.6 78.4l1.6 4.8h94.4l-11.2-12.8zM764.8 297.6l-1.6-3.2h-100.8l1.6 9.6c8 33.6 14.4 72 16 118.4v6.4h123.2v-8c-4.8-46.4-19.2-89.6-38.4-123.2zM763.2 584c20.8-35.2 33.6-75.2 38.4-123.2l1.6-8h-126.4v6.4c-3.2 48-8 84.8-16 118.4l-1.6 9.6h100.8l3.2-3.2zM654.4 611.2l-3.2 4.8c-11.2 32-19.2 56-28.8 75.2l-8 17.6 17.6-8c40-17.6 75.2-44.8 104-76.8l11.2-12.8h-92.8z" />
<glyph unicode="&#xe934;" d="M766.917 948.114l249.785-717.8-837.141 231.405 587.356 486.395zM912.461 327.565l-175.92 506.656-413.038-343.625 588.958-163.031z" />
<glyph unicode="&#xe935;" d="M521.143 632.685l159.993 13.216 137.737-105.795v-195.297l-2.72-1.143-172.090 168.69c-1.323 1.297-2.97 2.293-4.749 2.875l-95.349 31.144c-3.646 1.189-7.699 0.614-10.828-1.542-33.553-23.014-92.154-24.756-130.324-7.379l-6.729 3.064-0.321 2.718 113.141 87.993 12.238 1.456zM519.654 331.877c-13.797 13.515-33.705 19.502-52.911 15.898l-4.831-0.908-1.884 1.381-0.577 4.778c-1.588 13.007-7.394 24.748-16.803 33.97-11.141 10.911-25.956 16.922-41.72 16.922-15.753 0-30.56-6.009-41.7-16.921l-15.145-14.854-2.631 0.614-2.384 6.812c-2.918 8.344-7.626 15.735-14.021 22.003-11.143 10.922-25.959 16.939-41.719 16.939s-30.566-6.016-41.701-16.939l-22.867-22.405c-0.949-0.939-1.877-1.926-2.777-2.95l-8.049-9.112-2.799 1.059v181.028l1.6 1.6h46.139c2.382 0 4.693 0.677 6.684 1.959l81.024 51.531 112.695 18.052 1.238-2.841-86.996-67.904c-2.577-2.019-4.227-5.039-4.518-8.256-0.29-3.221 0.799-6.464 2.986-8.884 31.567-34.963 120.363-44.198 173.502-13.826l3.086 1.155 86.577-28.45 166.030-162.76c6.559-6.43 10.179-14.983 10.179-24.065 0-9.080-3.615-17.622-10.178-24.055-13.084-12.853-35.88-12.865-49.004-0.001l-8.098 7.94c-0.802 0.859-1.47 1.547-2.142 2.205l-70.532 69.126c-4.748 4.638-12.481 4.643-17.214 0.003-4.715-4.63-4.715-12.137 0-16.766l9.297-9.127c0.618-0.689 0.618-0.689 0.943-1.027l61.426-60.204c5.873-6.413 9.047-14.445 9.047-22.844 0-9.078-3.616-17.622-10.18-24.075-6.542-6.403-15.259-9.937-24.505-9.937-9.229 0-17.929 3.528-24.488 9.928l-73.594 72.127c-4.739 4.629-12.465 4.624-17.206-0.007-4.723-4.629-4.723-12.153-0.002-16.781l8.585-8.388 0.438-0.438 48.147-47.22c4.882-4.785 7.576-11.146 7.576-17.901 0-6.763-2.693-13.124-7.576-17.91-4.864-4.767-11.344-7.394-18.226-7.394s-13.363 2.627-18.226 7.394l-16.29 15.968-0.292 1.896 1.568 2.938c3.761 7.050 5.67 14.701 5.67 22.754 0 11.581-3.963 22.384-11.374 31.153l-0.491 0.491-6.292 6.15c-8.357 6.807-18.516 10.684-29.38 11.216l-4.455 0.207-1.526 1.632 0.092 4.384 0.036 1.125c-0.007 15.42-6.131 29.906-17.258 40.813zM558.443 216.796l-57.168-56.035c-4.872-4.775-11.351-7.403-18.235-7.403-6.875 0-13.345 2.628-18.215 7.401-4.879 4.763-7.569 11.132-7.569 17.912 0 5.878 2.096 11.598 6.008 16.23l56.389 55.29c0.703 0.689 1.406 1.42 2.161 2.244 10.001 9.841 26.804 9.832 36.629 0.182 4.87-4.774 7.557-11.142 7.557-17.91s-2.687-13.137-7.557-17.91zM445.745 211.405l-0.070-0.073-13.769-13.497c-6.552-6.422-15.251-9.955-24.506-9.955-9.247 0-17.946 3.534-24.498 9.956-6.55 6.429-10.16 14.973-10.16 24.056 0 9.090 3.609 17.634 10.161 24.065l70.534 69.146c13.117 12.857 35.885 12.857 49.003 0 6.558-6.428 10.17-14.972 10.17-24.065 0-8.242-3.063-16.205-8.694-22.493l-56.298-55.183c-0.698-0.693-1.314-1.336-1.872-1.957zM354.91 252.955c-6.569-6.429-15.267-9.964-24.506-9.964-9.253 0-17.962 3.541-24.506 9.964-6.558 6.428-10.17 14.972-10.17 24.065 0 9.086 3.612 17.629 10.17 24.056l70.534 69.137c13.127 12.867 35.886 12.867 49.002 0.001 6.549-6.41 10.162-14.962 10.162-24.057 0-9.103-3.612-17.656-10.161-24.065l-70.525-69.137zM284.972 314.256c-6.564-6.415-15.262-9.946-24.497-9.946-9.233 0-17.941 3.531-24.506 9.937l-0.011 0.011c-6.55 6.439-10.159 14.983-10.159 24.064s3.617 17.633 10.17 24.065l22.863 22.411c13.12 12.86 35.879 12.863 49.003 0 13.529-13.261 13.529-34.86 0-48.131l-22.863-22.411zM826.413 242.875h71.836c6.705 0 12.151 5.338 12.151 11.879s-5.446 11.879-12.151 11.879h-53.473l-1.6 1.6v357.635l1.6 1.6h53.473c6.705 0 12.151 5.338 12.151 11.879 0 6.546-5.443 11.879-12.151 11.879h-71.836c-4.164 0-7.54-3.306-7.54-7.35v-69.622l-2.57-1.272-124.472 94.906c-2.438 1.85-5.515 2.737-8.541 2.466l-163.764-13.956-22.886-3.049-163.848-26.249c-1.691-0.262-3.266-0.862-4.705-1.795l-79.329-50.755h-42.023l-1.6 1.6v67.69c0 4.066-3.389 7.386-7.567 7.386h-71.817c-6.714 0-12.151-5.329-12.151-11.879 0-6.544 5.44-11.879 12.151-11.879h53.482l1.6-1.6v-357.635l-1.6-1.6h-53.482c-6.711 0-12.151-5.335-12.151-11.879s5.44-11.879 12.151-11.879h71.845c4.16 0 7.54 3.311 7.54 7.359v58.156l2.794 1.065 8.043-9.016c1.031-1.162 1.908-2.098 2.783-2.956 12.125-11.876 28.991-17.978 46.1-16.755l4.74 0.332 1.711-1.536 0.174-4.646c0.544-14.625 6.65-28.369 17.204-38.705 13.81-13.519 33.672-19.505 52.884-15.898l4.831 0.908 1.884-1.378 0.587-4.794c1.551-12.951 7.36-24.675 16.821-33.949 11.132-10.921 25.948-16.939 41.71-16.939 6.883 0 13.606 1.139 19.985 3.387l4.465 1.573 2.052-1.012 1.449-4.431c2.432-7.455 6.547-14.054 12.259-19.652 9.465-9.278 22.044-14.387 35.43-14.387 13.396 0 25.984 5.11 35.449 14.387l46.35 45.441h2.24l13.898-13.613c9.281-9.089 20.765-14.633 32.325-15.625 15.112-1.317 29.354 3.73 40.021 14.186 5.6 5.498 9.687 12.038 12.153 19.456l1.485 4.457 2.069 0.996 4.485-1.645c6.589-2.426 13.569-3.658 20.706-3.658 15.775 0 30.589 6.012 41.719 16.93 9.349 9.164 15.144 20.756 16.777 33.548l0.605 4.727 1.869 1.372 4.768-0.854c17.672-3.174 35.218 1.423 48.75 12.659l7.545 6.254 2.621-1.232v-17.154c0-4.051 3.374-7.359 7.54-7.359z" />
<glyph unicode="&#xe936;" d="M648 960l91.2-723.2-739.2 384 648 339.2zM660.8 348.8l-64 510.4-456-240 520-270.4z" />
<glyph unicode="&#xe937;" d="M520 643.067c111.692 0 203.067-91.375 203.067-203.067s-91.375-203.067-203.067-203.067c-111.692 0-203.067 91.375-203.067 203.067s91.375 203.067 203.067 203.067zM520 213.067c124.808 0 226.933 102.125 226.933 226.933s-102.125 226.933-226.933 226.933c-124.808 0-226.933-102.125-226.933-226.933s102.125-226.933 226.933-226.933zM520 528.4c48.625 0 88.4-39.775 88.4-88.4s-39.775-88.4-88.4-88.4c-48.625 0-88.4 39.775-88.4 88.4s39.775 88.4 88.4 88.4zM520 327.733c61.741 0 112.267 50.525 112.267 112.267s-50.525 112.267-112.267 112.267c-61.741 0-112.267-50.525-112.267-112.267s50.525-112.267 112.267-112.267zM178.4 644.967c0-7.275 4.659-11.933 11.933-11.933 6.758 0 11.933 5.545 11.933 11.933v110.367l2.4 2.4h111.8c7.275 0 11.933 4.659 11.933 11.933s-4.659 11.933-11.933 11.933h-126.133c-7.275 0-11.933-4.659-11.933-11.933v-124.7zM861.6 769.667c0 7.275-4.659 11.933-11.933 11.933h-126.133c-7.275 0-11.933-4.659-11.933-11.933s4.659-11.933 11.933-11.933h111.8l2.4-2.4v-110.367c0-7.275 4.659-11.933 11.933-11.933 6.758 0 11.933 5.545 11.933 11.933v124.7zM328.4 110.333c0 7.275-4.659 11.933-11.933 11.933h-111.8l-2.4 2.4v110.367c0 7.275-4.659 11.933-11.933 11.933s-11.933-4.659-11.933-11.933v-124.7c0-7.275 4.659-11.933 11.933-11.933h126.133c6.389 0 11.933 5.175 11.933 11.933zM861.6 235.033c0 7.275-4.659 11.933-11.933 11.933s-11.933-4.659-11.933-11.933v-110.367l-2.4-2.4h-111.8c-7.275 0-11.933-4.659-11.933-11.933s4.659-11.933 11.933-11.933h126.133c6.758 0 11.933 5.545 11.933 11.933v124.7zM531.933 720.933c0 7.275-4.659 11.933-11.933 11.933s-11.933-4.659-11.933-11.933v-219.3c0-7.275 4.659-11.933 11.933-11.933 6.758 0 11.933 5.545 11.933 11.933v219.3zM531.933 378.367c0 7.275-4.659 11.933-11.933 11.933s-11.933-4.659-11.933-11.933v-219.3c0-7.275 4.659-11.933 11.933-11.933s11.933 4.659 11.933 11.933v219.3zM800.933 428.067c7.275 0 11.933 4.659 11.933 11.933s-4.659 11.933-11.933 11.933h-219.3c-7.275 0-11.933-4.659-11.933-11.933s4.659-11.933 11.933-11.933h219.3zM470.3 440c0 7.275-4.659 11.933-11.933 11.933h-219.3c-7.275 0-11.933-4.659-11.933-11.933s4.659-11.933 11.933-11.933h219.3c6.389 0 11.933 5.175 11.933 11.933z" />
<glyph unicode="&#xe938;" d="M0 307.2l436.8 652.8 329.6-833.6-766.4 180.8zM662.4 216l-240 606.4-318.4-473.6 558.4-132.8z" />
<glyph unicode="&#xe939;" d="M779.2 296c0 25.654-15.486 43.446-48.916 63.112-21.767 13.395-34.284 37.038-34.284 63.288v94.4c0 77.412-49.387 146.376-123.233 173.086l-3.167 1.146v49.768c0 21.349-17.051 38.4-38.4 38.4h-36.8c-21.349 0-38.4-17.051-38.4-38.4v-49.768l-3.167-1.146c-73.714-26.663-123.233-97.148-123.233-176.286v-91.2c0-25.774-13.751-51.312-34.469-63.396-34.282-19.045-50.331-37.101-50.331-63.004 0-49.473 57.804-84.926 198.722-94.411l4.478-0.301v-47.688c0-16.549 13.851-30.4 30.4-30.4h67.2c16.549 0 30.4 13.851 30.4 30.4v47.775l4.569 0.22c140.757 6.767 198.631 42.649 198.631 94.406zM480 742.4c0 7.804 5.71 12.8 14.4 12.8h36.8c7.451 0 12.8-5.349 12.8-12.8v-44.066l-5.589 0.932c1.392-0.232-7.124 1.208-9.199 1.533-6.994 1.097-12.439 1.601-18.812 1.601-13.278 0-18.327-0.24-24.659-1.507l-5.741-1.148v42.655zM550.4 147.2h-80v52.8h4.8c5.508 0 9.981-0.222 18.53-0.811 8.919-0.615 12.187-0.789 16.67-0.789 18.17 0 25.405 0.25 34.521 1.552l5.479 0.783v-53.534zM512 224c-150.583 0-243.363 26.25-241.6 72 0 15.241 7.927 24.387 37.337 43.994 28.335 18.89 45.863 49.772 45.863 82.406v91.2c0 89.086 70.982 161.6 158.4 161.6h1.6c86.91 0 158.4-72.004 158.4-158.4v-94.4c0-32.634 17.528-63.516 45.808-82.37 28.046-18.148 37.392-28.878 37.392-44.030 0-44.793-94.993-72-243.2-72z" />
<glyph unicode="&#xe93a;" d="M936 656l91.2-723.2-739.2 384 648 339.2zM948.8 44.8l-64 510.4-456-240 520-270.4z" />
<glyph unicode="&#xe93b;" d="M891.693 728.916c0.399 3.449 0.399 4.625 0.064 5.294l-0.345 1.005c-1.059 5.286-6.49 8.477-13.29 7.347l-50.456-10.078 46.846 46.785c1.985 1.983 3.326 5.329 3.326 7.654 0 3.205-0.903 5.234-3.326 7.654-4.437 4.431-10.905 4.431-15.342 0l-46.833-46.772 10.091 50.388c1.157 5.78-2.462 12.287-8.363 13.609-1.106 0.552-3.96-0.018-6.924-1.498-1.688-0.843-3.786-3.985-3.855-6.15l-14.997-79.379-1.104-2.088-28.223-28.186 1.951 12.179 6.026 37.596c1.157 5.78-2.462 12.287-8.363 13.609-1.106 0.552-3.96-0.018-6.924-1.498-1.688-0.843-3.786-3.985-3.858-6.164l-16.441-85.382-5.342 5.46c-64.414 65.827-149.127 102.14-240.056 102.14-186.872-1.481-337.956-155.569-337.956-344.968 0-189.623 151.297-343.471 337.924-343.471s337.924 153.848 337.924 343.471c0 80.575-27.054 157.387-77.060 217.609l-4.341 5.228 85.637 16.1c4.219 1.405 5.925 2.469 6.684 3.985 1.817 3.63 2.111 4.949 1.155 7.91-0.979 4.887-7.498 8.504-13.417 7.324l-48.314-8.042 28.334 28.297 2.086 1.101 78.96 14.842c3.64 1.212 5.834 2.3 7.819 3.992 0.055 0.853 0.152 1.803 0.302 3.1zM800.355 427.471c0-177.296-141.116-321.516-314.431-321.516s-314.431 144.221-314.431 321.516c0 177.296 141.116 321.516 314.431 321.516 85.239 0 164.201-33.515 224.812-95.561l2.764-2.83-61.16-61.081-2.826 2.916c-43.769 45.169-101.004 69.176-163.591 69.176-126.924 0-229.948-104.712-229.948-234.137s103.024-234.137 229.948-234.137c126.924 0 229.948 104.712 229.948 234.137 0 51.554-16.215 100.135-47.188 141.379l-2.086 2.778 61.177 61.098 2.773-3.629c44.776-58.596 69.806-130.018 69.806-201.625zM551.411 427.471c0-37.908-30.041-68.402-66.986-68.402s-66.986 30.494-66.986 68.402c0 37.908 30.041 68.402 66.986 68.402 17.296 0 34.861-7.701 47.817-20.64l2.834-2.83-37.326-37.278c-1.985-1.983-3.326-5.329-3.326-7.654 0-3.205 0.903-5.234 3.326-7.654 4.366-4.36 12.018-4.36 15.342 0l33.487 33.443 1.714-6.846c2.33-9.307 3.119-13.51 3.119-18.943zM485.924 519.325c-49.979 0-90.479-41.337-90.479-91.854s40.501-91.854 90.479-91.854c49.979 0 90.479 41.337 90.479 91.854 0 14.224-2.801 27.16-8.652 40.31l-1.118 2.513 84.779 84.669 2.739-3.862c25.984-36.636 39.729-79.384 39.728-123.681-1.525-117.304-94.586-212.131-207.954-212.131-114.877 0-207.955 94.845-207.955 212.183 0 116.353 93.579 212.183 207.955 212.183 55.747 0 107.954-22.288 148.294-62.576l2.834-2.83-85.143-85.032-2.827 2.823c-17.79 17.767-39.421 27.287-63.159 27.287z" />
<glyph unicode="&#xe93c;" d="M155.2 801.6l185.6-612.8 443.2 396.8-628.8 216zM300.8 44.8l-268.8 883.2 905.6-312-636.8-571.2z" />
<glyph unicode="&#xe93d;" d="M240 739.2h176c19.44 0 35.2-15.76 35.2-35.2v-176c0-19.44-15.76-35.2-35.2-35.2h-176c-19.44 0-35.2 15.76-35.2 35.2v176c0 19.44 15.76 35.2 35.2 35.2zM240 764.8c-33.579 0-60.8-27.221-60.8-60.8v-176c0-33.579 27.221-60.8 60.8-60.8h176c33.579 0 60.8 27.221 60.8 60.8v176c0 33.579-27.221 60.8-60.8 60.8h-176zM592 739.2h176c19.44 0 35.2-15.76 35.2-35.2v-176c0-19.44-15.76-35.2-35.2-35.2h-176c-19.44 0-35.2 15.76-35.2 35.2v176c0 19.44 15.76 35.2 35.2 35.2zM592 764.8c-33.579 0-60.8-27.221-60.8-60.8v-176c0-33.579 27.221-60.8 60.8-60.8h176c33.579 0 60.8 27.221 60.8 60.8v176c0 33.579-27.221 60.8-60.8 60.8h-176zM240 387.2h176c19.44 0 35.2-15.76 35.2-35.2v-176c0-19.44-15.76-35.2-35.2-35.2h-176c-19.44 0-35.2 15.76-35.2 35.2v176c0 19.44 15.76 35.2 35.2 35.2zM240 412.8c-33.579 0-60.8-27.221-60.8-60.8v-176c0-33.579 27.221-60.8 60.8-60.8h176c33.579 0 60.8 27.221 60.8 60.8v176c0 33.579-27.221 60.8-60.8 60.8h-176zM592 387.2h176c19.44 0 35.2-15.76 35.2-35.2v-176c0-19.44-15.76-35.2-35.2-35.2h-176c-19.44 0-35.2 15.76-35.2 35.2v176c0 19.44 15.76 35.2 35.2 35.2zM592 412.8c-33.579 0-60.8-27.221-60.8-60.8v-176c0-33.579 27.221-60.8 60.8-60.8h176c33.579 0 60.8 27.221 60.8 60.8v176c0 33.579-27.221 60.8-60.8 60.8h-176z" />
<glyph unicode="&#xe93e;" d="M792 25.6l-792 624 828.8 310.4-36.8-934.4zM129.6 628.8l603.2-475.2 28.8 712-632-236.8z" />
<glyph unicode="&#xe93f;" d="M515.15 167.582l0.33 0.201c251.020 139.598 360.199 314.151 285.822 454.495-28.281 53.729-80.436 89.934-137.638 95.514-57.915 5.65-113.776-18.524-151.389-65.654l-3.733-4.678-3.756 4.659c-34.44 42.725-83.387 67.080-134.517 67.080-8.89 0-12.297-0.277-17.439-1.508-55.928-5.414-106.977-40.992-137.023-95.359-74.416-140.406 34.789-314.962 286.405-454.924 3.712-2.486 9.003-2.451 12.939 0.173zM511.265 194.962l-2.371-0.627h-0.714l-2.363 0.622c-230.279 130.243-332.372 289.798-264.682 416.715 25.036 48.68 71.266 79.421 123.453 82.32 51.671 2.793 100.192-24.707 133.315-75.113 2.939-4.409 7.065-6.72 12.047-6.72 4.98 0 9.107 2.31 12.015 6.672 32.474 49.417 80.614 76.586 133.469 75.156 52.073-2.895 98.297-33.641 123.302-82.258 65.409-126.561-37.584-286.136-267.47-416.767zM392.084 621.488l0.279 0.666c1.175 2.301 0.803 5.681-1.070 7.925l-0.809 1.388c-1.726 4.591-10.434 7.212-16.973 4.598l-0.083-0.034c-41.925-19.565-74.36-54.56-90.114-97.426-1.123-2.21-1.085-6.169 0.191-8.722 1.504-3.008 4.369-5.442 8.271-6.752 6.246-2.504 14.345 1.268 16.999 7.89 12.659 36.555 40.696 66.644 76.481 82.383 3.166 1.579 5.609 4.43 6.827 8.084z" />
<glyph unicode="&#xe940;" d="M1018.477-60.8l-858.477 404.8 686.466 504 172.011-908.8zM298.871 356.8l623.342-294.4-124.668 659.2-498.674-364.8z" />
<glyph unicode="&#xe941;" d="M842.017 505.488c24.074 18.956 38.101 47.528 38.101 78.075 0 54.806-44.573 99.386-99.367 99.386-54.791 0-99.386-44.595-99.386-99.386 0-30.546 14.027-59.119 38.101-78.075l8.965-7.059-10.697-3.97c-47.953-17.796-83.134-54.892-93.751-98.839l-1.938-8.023-7.288 3.875c-12.106 6.437-24.915 11.788-38.316 16.002l-12.934 4.067 11.36 7.401c36.54 23.806 58.617 64.126 58.617 107.698 0 70.873-57.648 128.521-128.521 128.521s-128.521-57.648-128.521-128.521c0-43.577 22.081-83.895 58.634-107.697l11.368-7.402-12.942-4.066c-13.926-4.376-27.165-9.953-39.583-16.671l-7.47-4.042-1.826 8.295c-9.902 44.982-45.386 83.101-94.245 101.237l-10.701 3.972 8.97 7.058c24.071 18.939 38.099 47.523 38.099 78.092 0 54.791-44.595 99.386-99.386 99.386-54.801 0-99.386-44.587-99.386-99.386 0-30.552 14.032-59.142 38.101-78.093l8.964-7.058-10.697-3.97c-58.827-21.834-97.144-71.813-97.144-127.069 0-6.798 5.503-12.3 12.3-12.3s12.3 5.502 12.3 12.3c0 62.881 60.943 113.663 135.561 113.663 72.589 0 132.537-48.208 135.039-110.779l-2.054-3.787c-41.593-34.225-65.005-80.899-65.005-130.203 0-6.798 5.503-12.3 12.3-12.3s12.3 5.502 12.3 12.3c0 86.101 83.14 155.794 185.041 155.794s185.041-69.693 185.041-155.794c0-6.806 5.494-12.3 12.3-12.3s12.3 5.494 12.3 12.3c0 49.929-24.047 97.172-67.532 132.699l-1.431 4.269c4.801 59.688 64.044 105.969 135.11 105.969 74.623 0 135.542-50.772 135.542-113.663 0-6.806 5.494-12.3 12.3-12.3s12.3 5.493 12.3 12.298c-0.017 55.261-38.339 105.239-97.162 127.071l-10.697 3.97 8.964 7.058zM227.342 660.181c41.234 0 74.786-33.552 74.786-74.786 0-41.244-33.544-74.786-74.786-74.786-41.244 0-74.786 33.544-74.786 74.786s33.542 74.786 74.786 74.786zM401.024 526.621c0 57.306 46.613 103.921 103.921 103.921 57.306 0 103.921-46.613 103.921-103.921 0-57.297-46.623-103.921-103.921-103.921-57.307 0-103.921 46.615-103.921 103.921zM780.732 658.349c41.23 0 74.767-33.548 74.767-74.786 0-41.23-33.548-74.786-74.767-74.786-41.244 0-74.786 33.544-74.786 74.786 0 41.244 33.544 74.786 74.786 74.786z" />
<glyph unicode="&#xe942;" d="M0 359.568l465.952 600.432 261.872-828.112-727.824 227.68zM441.168 819.616l-329.104-423.488 513.152-159.248-184.048 582.736z" />
<glyph unicode="&#xe943;" d="M713.442 266.831c-5.808-11.151-15.621-19.368-27.609-23.116-24.779-7.739-51.23 6.045-59.015 30.787-2.084 6.603-9.070 10.266-15.668 8.174-6.579-2.072-10.235-9.092-8.172-15.67 9.497-30.214 37.566-50.469 68.791-50.469 7.232 0 14.479 1.107 21.55 3.324 18.356 5.765 33.366 18.338 42.275 35.411 8.906 17.055 10.633 36.562 4.867 54.936-7.047 22.397-24.602 39.99-46.983 47.079-6.577 2.114-13.59-1.545-15.674-8.137-2.085-6.569 1.56-13.593 8.133-15.68 14.624-4.627 26.104-16.127 30.685-30.746 3.761-11.983 2.629-24.727-3.18-35.893zM848.369 348.381l-22.162 3.891-1.245 1.081c-2.781 8.556-6.196 16.833-10.222 24.762l0.124 1.653 13.211 18.536c10.045 14.407 8.327 33.885-4.090 46.329l-18.463 18.465c-12.434 12.422-31.924 14.133-46.324 4.064l-25.652-17.944c-5.645-3.947-7.022-11.746-3.072-17.408 3.944-5.654 11.726-7.024 17.404-3.072l25.647 17.94c4.452 3.138 10.507 2.605 14.344-1.248l18.437-18.453c3.829-3.846 4.397-9.892 1.339-14.264l-18.239-25.584c-2.832-3.968-3.088-9.242-0.663-13.481 6.397-11.11 11.321-23.026 14.619-35.396 1.265-4.698 5.122-8.24 9.909-9.088l30.823-5.412c5.377-0.937 9.289-5.579 9.289-11.034v-26.147c0-5.457-3.885-10.097-9.248-11.035l-30.84-5.342c-4.775-0.823-8.656-4.367-9.932-9.058-3.318-12.349-8.261-24.249-14.676-35.34-2.428-4.217-2.196-9.452 0.6-13.422l17.93-25.573c3.105-4.452 2.569-10.486-1.266-14.338l-18.438-18.439c-3.864-3.848-9.911-4.38-14.35-1.277l-25.58 17.887c-3.987 2.783-9.209 3.018-13.408 0.588-11.050-6.374-22.935-11.289-35.324-14.607-4.698-1.262-8.236-5.123-9.086-9.909l-5.412-30.825c-0.937-5.378-5.579-9.289-11.034-9.289h-26.089c-5.46 0-10.097 3.888-11.033 9.259l-5.412 30.842c-0.836 4.776-4.365 8.632-9.058 9.908-12.348 3.319-24.247 8.262-35.329 14.672-4.259 2.419-9.479 2.199-13.428-0.595l-25.574-17.934c-4.479-3.107-10.493-2.556-14.41 1.345l-18.573 18.293c-3.85 3.867-4.397 9.92-1.276 14.338l17.931 25.587c2.769 3.93 3.025 9.114 0.661 13.304-4.816 8.536-8.792 17.599-11.827 26.963-2.122 6.565-9.138 10.149-15.729 8.047-6.562-2.125-10.157-9.161-8.033-15.732 2.631-8.132 5.859-16.049 9.649-23.657l-0.122-1.632-12.994-18.534c-10.082-14.408-8.354-33.896 4.138-46.403l18.613-18.318c12.448-12.422 31.926-14.136 46.337-4.051l18.45 12.94 1.647 0.115c7.931-4.056 16.221-7.498 24.772-10.292l1.079-1.245 3.89-22.255c3.052-17.366 18.036-29.955 35.662-29.955h26.1c17.662 0.027 32.651 12.651 35.65 30.011l3.89 22.186 1.082 1.246c8.556 2.777 16.847 6.204 24.785 10.25l1.643-0.114 18.449-12.897c14.424-10.067 33.887-8.35 46.339 4.076l18.463 18.465c12.424 12.438 14.129 31.916 4.050 46.341l-12.939 18.451-0.115 1.647c4.059 7.939 7.5 16.217 10.292 24.747l1.248 1.079 22.251 3.847c17.365 3.052 29.952 18.037 29.952 35.665v26.156c-0.054 17.651-12.691 32.644-30.031 35.626zM451.346 251.451c20.693 0 38.314 14.768 41.866 35.056l5.624 30.517 1.096 1.237c12.153 3.804 23.947 8.686 35.255 14.593l1.659-0.108 25.315-17.733c16.975-11.915 39.944-9.936 54.454 4.671l23.736 23.146c14.715 14.676 16.736 37.617 4.81 54.611l-17.801 25.316-0.11 1.66c5.891 11.306 10.773 23.116 14.579 35.26l1.237 1.095 30.489 5.625c20.015 3.658 34.679 21.108 34.896 41.558v33.153c0 20.7-14.786 38.346-35.082 41.897l-30.514 5.624-1.237 1.096c-3.806 12.161-8.689 23.955-14.591 35.243l0.11 1.663 17.799 25.256c11.91 16.977 9.895 39.933-4.783 54.572l-23.401 23.403c-14.449 14.559-37.258 16.672-54.308 5.020l-25.314-17.803-1.661-0.11c-11.337 5.915-23.134 10.803-35.242 14.593l-1.095 1.237-5.612 30.404c-3.572 20.4-21.183 35.197-41.877 35.197h-33.343c-20.565-0.244-38.012-15.146-41.391-35.296l-5.624-30.517-1.096-1.237c-12.108-3.79-23.904-8.678-35.242-14.593l-1.66 0.11-25.327 17.802c-16.988 11.92-39.954 9.912-54.567-4.784l-23.27-23.258c-14.474-14.462-16.582-37.208-4.994-54.232l17.787-25.316 0.109-1.66c-5.915-11.338-10.802-23.136-14.592-35.245l-1.236-1.096-30.403-5.613c-20.445-3.571-35.248-21.244-35.194-41.993v-33.301c0.271-20.564 15.169-38.005 35.308-41.383l30.514-5.638 1.236-1.096c3.801-12.157 8.68-23.953 14.577-35.243l-0.109-1.661-17.8-25.328c-11.893-16.966-9.917-39.94 4.645-54.435l23.042-23.777c14.656-14.698 37.61-16.713 54.592-4.797l25.314 17.803 1.661 0.109c11.309-5.907 23.103-10.789 35.255-14.593l1.096-1.237 5.611-30.439c3.629-20.142 21.106-34.845 41.625-35.008h33.178zM484.911 339.941c-4.664-1.25-8.184-5.062-9.046-9.796l-7.228-39.171c-1.474-8.423-8.738-14.532-17.291-14.532h-33.063c-8.436 0.062-15.636 6.153-17.136 14.503l-7.202 39.058c-0.875 4.735-4.398 8.546-9.060 9.796-15.986 4.292-31.352 10.659-45.702 18.937-1.899 1.103-4.053 1.672-6.244 1.672-2.538 0-5.060-0.792-7.184-2.274l-32.502-22.849c-6.973-4.901-16.455-4.111-22.393 1.858l-23.081 23.801c-6.061 6.030-6.888 15.51-1.97 22.507l22.848 32.506c2.794 3.967 3.026 9.216 0.599 13.431-8.268 14.306-14.638 29.687-18.934 45.702-1.25 4.651-5.063 8.173-9.796 9.047l-39.268 7.254c-8.343 1.391-14.533 8.56-14.642 16.928v33.192c-0.016 8.592 6.115 15.867 14.643 17.363l39.055 7.203c4.735 0.875 8.546 4.399 9.795 9.061 4.301 16.024 10.663 31.387 18.934 45.704 2.435 4.208 2.2 9.456-0.601 13.431l-22.734 32.342c-4.75 6.986-3.869 16.366 2.109 22.329l23.298 23.3c6.043 6.044 15.534 6.872 22.517 1.968l32.496-22.845c4-2.784 9.226-3.022 13.438-0.604 14.323 8.256 29.701 14.626 45.711 18.934 4.65 1.25 8.172 5.063 9.046 9.796l7.24 39.271c1.391 8.348 8.55 14.534 16.927 14.643h33.178c8.564 0 15.807-6.119 17.303-14.63l7.202-39.058c0.875-4.74 4.389-8.548 9.046-9.796 16.001-4.296 31.38-10.667 45.697-18.934 4.228-2.432 9.464-2.194 13.433 0.598l32.365 22.763c7.003 4.783 16.4 3.898 22.372-2.121l23.436-23.438c6.064-6.034 6.896-15.51 1.998-22.508l-22.848-32.435c-2.806-3.978-3.041-9.226-0.612-13.445 8.275-14.347 14.642-29.714 18.934-45.706 1.235-4.653 5.053-8.181 9.794-9.056l39.168-7.228c8.42-1.473 14.531-8.75 14.531-17.307v-33.015c-0.093-8.405-6.153-15.584-14.432-17.103l-39.055-7.203c-4.727-0.873-8.532-4.391-9.796-9.048-4.307-15.991-10.674-31.371-18.932-45.727-2.428-4.217-2.196-9.452 0.599-13.42l22.848-32.492c4.901-6.988 4.094-16.455-1.898-22.432l-23.77-23.18c-6.011-6.089-15.506-6.912-22.522-1.977l-32.503 22.765c-3.97 2.784-9.205 3.012-13.406 0.586-14.33-8.258-29.706-14.619-45.711-18.92zM544.607 467.649c-5.369 4.321-13.241 3.462-17.553-1.913-18.444-22.946-45.866-36.104-75.243-36.104-36.706 0-69.75 20.849-86.065 53.159l1.428 2.321h98.506c6.896 0 12.494 5.598 12.494 12.496s-5.598 12.496-12.494 12.496h-107.512l-1.582 1.359c-0.812 5.318-1.23 10.022-1.23 14.633 0 1.67 0.071 2.983 0.279 5.875 0.032 0.439 0.032 0.439 0.063 0.877l1.596 1.487h108.386c6.896 0 12.494 5.598 12.494 12.496s-5.598 12.496-12.494 12.496h-102.015l-1.487 2.19c14.483 36.518 49.809 61.043 89.634 61.043 29.649 0 57.243-13.36 75.674-36.637 4.266-5.401 12.138-6.314 17.554-2.049 5.41 4.286 6.322 12.146 2.036 17.557-23.201 29.31-57.93 46.12-95.264 46.12-54.070 0-101.262-35.884-116.408-87.078l-1.534-1.146h-24.595c-6.896 0-12.494-5.598-12.494-12.496s5.598-12.496 12.494-12.496h19.831l1.598-1.681c-0.064-1.128-0.064-1.128-0.139-2.234-0.148-2.168-0.197-3.127-0.197-4.323 0-4.466 0.308-9.078 0.905-14.207l-1.589-1.785h-20.409c-6.896 0-12.494-5.598-12.494-12.496s5.598-12.496 12.494-12.496h27.245l1.5-1.044c17.534-47.317 62.679-79.427 113.792-79.427 36.994 0 71.503 16.555 94.707 45.438 4.321 5.384 3.464 13.244-1.912 17.57z" />
<glyph unicode="&#xe944;" d="M1018.477-60.8l-858.477 404.8 686.466 504 172.011-908.8zM298.871 356.8l623.342-294.4-124.668 659.2-498.674-364.8z" />
<glyph unicode="&#xe945;" d="M772.283 480.16c-7.016 0-15.829-1.13-27.505-3.465l-6.305-1.261v136.637c0 16.709-13.693 30.403-30.403 30.403h-113.45l1.261 6.305c2.734 13.668 3.465 19.354 3.465 27.505 0 57.734-47.583 105.317-105.317 105.317s-105.317-47.583-105.317-105.317c0-7.016 1.13-15.829 3.465-27.505l1.261-6.305h-136.637c-16.709 0-30.403-13.693-30.403-30.403v-156.963c0-10.385 10.039-16.524 18.56-11.667 11.584 7.722 25.086 11.587 40.381 11.587 43.935 0 80.185-36.25 80.185-80.185s-36.25-80.185-80.185-80.185c-14.33 0-29.376 4.25-40.072 11.397-8.806 5.032-18.869-1.062-18.869-11.477v-133.775c0-16.709 13.693-30.403 30.403-30.403h133.775c10.385 0 16.524 10.039 11.667 18.56-7.722 11.584-11.587 25.086-11.587 40.381 0 43.935 36.25 80.185 80.185 80.185s80.185-36.25 80.185-80.185c0-14.33-4.25-29.376-11.397-40.072-5.032-8.806 1.062-18.869 11.477-18.869h156.963c16.709 0 30.403 13.693 30.403 30.403v113.45l6.305-1.261c13.668-2.734 19.354-3.465 27.505-3.465 57.734 0 105.317 47.583 105.317 105.317s-47.583 105.317-105.317 105.317zM772.283 294.658c-14.33 0-29.376 4.25-40.072 11.397-8.806 5.032-18.869-1.062-18.869-11.477v-136.646l-2.4-2.4h-139.508l1.261 6.305c2.734 13.668 3.465 19.354 3.465 27.505 0 57.734-47.583 105.317-105.317 105.317s-105.317-47.583-105.317-105.317c0-7.016 1.13-15.829 3.465-27.505l1.261-6.305h-116.321l-2.4 2.4v116.321l6.305-1.261c13.668-2.734 19.354-3.465 27.505-3.465 57.734 0 105.317 47.583 105.317 105.317s-47.583 105.317-105.317 105.317c-7.016 0-15.829-1.13-27.505-3.465l-6.305-1.261v139.508l2.4 2.4h159.834c10.385 0 16.524 10.039 11.667 18.56-7.722 11.584-11.587 25.086-11.587 40.381 0 43.935 36.25 80.185 80.185 80.185s80.185-36.25 80.185-80.185c0-14.33-4.25-29.376-11.397-40.072-5.032-8.806 1.062-18.869 11.477-18.869h136.646l2.4-2.4v-159.834c0-10.385 10.039-16.524 18.56-11.667 11.584 7.722 25.086 11.587 40.381 11.587 43.935 0 80.185-36.25 80.185-80.185s-36.25-80.185-80.185-80.185z" />
<glyph unicode="&#xe946;" d="M576 912l272-976-848 236.8 576 739.2zM755.2 28.8l-206.4 744-438.4-563.2 644.8-180.8z" />
</font>
</defs>
</svg>
